<?xml version="1.0" encoding="utf-8"?>
<!-- Generator: Adobe Illustrator 25.4.1, SVG Export Plug-In . SVG Version: 6.00 Build 0)  -->
<svg version="1.1" id="Layer_1" xmlns="http://www.w3.org/2000/svg" xmlns:xlink="http://www.w3.org/1999/xlink" x="0px" y="0px"
	 viewBox="0 0 44 24" style="enable-background:new 0 0 44 24;" xml:space="preserve">
<path d="M32,12.1c0-1.1,0.9-2,2-2c1.1,0,2,0.9,2,2s-0.9,2-2,2C32.9,14.1,32,13.2,32,12.1 M20,11.9c0-1.1,0.9-2,2-2c1.1,0,2,0.9,2,2
	s-0.9,2-2,2C20.9,13.9,20,13,20,11.9 M8,11.9c0-1.1,0.9-2,2-2s2,0.9,2,2s-0.9,2-2,2S8,13,8,11.9z"/>
</svg>
