<svg enable-background="new 0 0 32 32" viewBox="0 0 32 32" xmlns="http://www.w3.org/2000/svg" xmlns:xlink="http://www.w3.org/1999/xlink"><clipPath id="a"><path d="m25.4 3.9c-2.6-2.6-6-3.9-9.4-3.9s-6.8 1.3-9.4 3.9c-5.1 5.1-5.1 13.6 0 18.7l9.4 9.4 9.4-9.4c5.1-5.1 5.1-13.6 0-18.7zm-15.4 5.4v-1.1h5.8c-.7.5-1.3 1.3-1.4 2.2h-3.3c-.6 0-1.1-.5-1.1-1.1zm11.5 4.9c0 .6-.5 1.1-1.1 1.1h-2.2c-.6 0-1.1.5-1.1 1.1v1.6c0 1.8-1.5 3.3-3.3 3.3s-3.3-1.5-3.3-3.3v-2.7h1.1c.6 0 1.1.5 1.1 1.1v1.6c0 .6.5 1.1 1.1 1.1s1.1-.5 1.1-1.1v-1.6c0-1.8 1.5-3.3 3.3-3.3h3.3zm.5-4.9c0 .6-.5 1.1-1.1 1.1h-2.7c-.6 0-1.1.5-1.1 1.1v1.1c-.9.2-1.7.7-2.2 1.4v-2.6c0-1.8 1.5-3.3 3.3-3.3h3.8z"/></clipPath><g clip-path="url(#a)"><path d="m0 0h32v5.3h-32z" fill="#fc5c65"/><path d="m0 5.3h32v5.4h-32z" fill="#fd9644"/><path d="m0 10.7h32v5.3h-32z" fill="#fed330"/><path d="m0 16h32v5.3h-32z" fill="#26de81"/><path d="m0 21.3h32v5.3h-32z" fill="#4b7bec"/><path d="m0 26.6h32v5.4h-32z" fill="#a55eea"/></g></svg>