<svg enable-background="new 0 0 24 24" viewBox="0 0 24 24" xmlns="http://www.w3.org/2000/svg"><path clip-rule="evenodd" d="m2 17.9v-11.8c0-2.3 1.8-4.1 4.1-4.1h11.9c2.2 0 4 1.8 4 4.1v5.7c0 2.3-1.8 4.1-4.1 4.1h-2.3v2.1c0 2.2-1.8 4.1-4.1 4.1h-5.4c-2.3-.1-4.1-1.9-4.1-4.2zm6.2-9.6h-5.1v-2.3c0-1.6 1.3-3 3-3h2.2v5.3zm9.7 6.6h-2.2v-5.4h5.2v2.4c0 1.6-1.3 3-3 3zm-6.3 6.1h-2.2v-4.9h5.2v1.9c0 1.6-1.4 3-3 3zm-2.2-6.1h5.2v-5.4h-5.2zm6.4-6.6h5.2v-2.2c0-1.7-1.4-3-3-3h-2.2zm-1.2 0h-5.2v-5.3h5.2zm-11.6 7.7v1.9c0 1.7 1.4 3 3 3h2.2v-4.9zm5.2-1.1h-5.2v-5.4h5.2z" fill="#fff" fill-rule="evenodd"/></svg>