<?xml version="1.0" standalone="no"?>
<!DOCTYPE svg PUBLIC "-//W3C//DTD SVG 1.1//EN" "http://www.w3.org/Graphics/SVG/1.1/DTD/svg11.dtd">
<svg xmlns="http://www.w3.org/2000/svg">
<defs >
<font id="Manrope" horiz-adv-x="1132" ><font-face
    font-family="Manrope ExtraLight Medium"
    units-per-em="2000"
    panose-1="0 0 0 0 0 0 0 0 0 0"
    ascent="2132"
    descent="-600"
    alphabetic="0" />
<glyph unicode=" " horiz-adv-x="400" />
<glyph unicode="!" horiz-adv-x="658" d="M240 0V184H418V0H240ZM240 360V1440H418V360H240Z" />
<glyph unicode="&quot;" horiz-adv-x="834" d="M120 1080V1440H298V1080H120ZM456 1080V1440H634V1080H456Z" />
<glyph unicode="#" horiz-adv-x="1848" d="M400 1L512 420H120L165 590H558L635 882H243L289 1051H681L785 1440H961L856 1051H1161L1265 1440H1441L1336 1051H1728L1683 882H1291L1212 590H1604L1559 420H1167L1055 1H880L991 420H687L575 1H400ZM733 590H1037L1115
882H811L733 590Z" />
<glyph unicode="$" horiz-adv-x="1204" d="M519 -198V33H697V-198H519ZM519 1407V1639H697V1407H519ZM622 -30Q476 -30 360 22T168 171T70 399L245 428Q277 295 380 217T630 139Q777 139 868 210T959 393Q959 475 911 525T748 610L419 712Q124 804 124 1064Q124
1186 183 1277T350 1419T601 1469Q740 1468 849 1418T1029 1273T1126 1048L946 1015Q932 1100 885 1164T764 1263T600 1300Q515 1301 448 1272T341 1191T302 1072Q302 999 356 949T528 862L798 782Q976 729 1055 640T1134 401Q1134 272 1071 175T892 24T622 -30Z"
/>
<glyph unicode="%" horiz-adv-x="1802" d="M300 0L180 120L1502 1440L1622 1320L300 0ZM1322 -30Q1223 -30 1142 18T1011 148T962 330Q962 428 1012 510T1144 641T1322 690Q1421 690 1503 642T1633 512T1682 330Q1682 230 1634 149T1503 19T1322 -30ZM1322 127Q1377
127 1423 155T1497 229T1525 330Q1525 385 1498 431T1424 505T1322 533Q1267 533 1221 506T1147 432T1119 330Q1119 275 1147 229T1221 155T1322 127ZM480 750Q381 750 299 798T169 928T120 1110Q120 1208 170 1290T302 1421T480 1470Q579 1470 660 1422T791 1292T840
1110Q840 1010 791 929T661 799T480 750ZM480 907Q535 907 581 935T655 1009T683 1110Q683 1165 656 1211T582 1285T480 1313Q425 1313 379 1286T305 1212T277 1110Q277 1055 305 1009T379 935T480 907Z" />
<glyph unicode="&amp;" horiz-adv-x="1314" d="M608 -30Q488 -30 384 5T210 115Q156 175 130 247T100 401Q100 480 123 555T196 690Q222 722 254 744T320 783Q251 857 215 922T178 1079Q178 1196 238 1290T404 1429Q455 1451 508 1459T613 1468Q699 1468 780 1444T918
1366Q956 1334 983 1293T1025 1206L851 1161Q832 1212 788 1247Q753 1277 707 1288T613 1299Q535 1299 472 1269Q416 1242 388 1194T360 1079Q360 1022 379 986T434 908Q455 886 481 862T536 811L960 417Q963 442 964 468T965 518L964 717H1127V483Q1127 412 1123
362T1108 279L1291 110L1175 -14L1023 130Q984 86 930 53T822 3Q771 -16 717 -23T608 -30ZM612 141Q661 141 701 147T777 170Q825 193 851 214T894 253L455 655Q419 643 388 623T333 576Q307 544 295 501T282 410Q283 359 299 316T344 239Q388 188 463 165T612
141Z" />
<glyph unicode="&apos;" horiz-adv-x="458" d="M120 1080V1440H298V1080H120Z" />
<glyph unicode="(" horiz-adv-x="870" d="M653 -366Q536 -231 452 -63T323 290T280 660Q278 846 323 1031T452 1383T653 1686L785 1586Q667 1446 592 1295T480 985T443 660Q444 497 480 337T592 25T785 -265L653 -366Z" />
<glyph unicode=")" horiz-adv-x="870" d="M217 -366Q334 -231 418 -63T547 290T590 660Q592 846 547 1031T418 1383T217 1686L85 1586Q203 1446 278 1295T390 985T427 660Q426 497 390 337T278 25T85 -265L217 -366Z" />
<glyph unicode="*" horiz-adv-x="892" d="M276 762L145 857L300 1052L60 1122L110 1276L344 1189L335 1440H497L488 1189L722 1276L772 1122L532 1052L686 857L555 762L416 968L276 762Z" />
<glyph unicode="+" horiz-adv-x="1150" d="M502 265V647H120V794H502V1175H649V794H1030V647H649V265H502Z" />
<glyph unicode="," horiz-adv-x="556" d="M120 -224L131 -141Q173 -144 194 -125T221 -73T223 0H120V226H316V-30Q316 -135 265 -188T120 -224Z" />
<glyph unicode="-" horiz-adv-x="840" d="M120 557V704H720V557H120Z" />
<glyph unicode="." horiz-adv-x="540" d="M172 0V196H368V0H172Z" />
<glyph unicode="/" horiz-adv-x="805" d="M504 1440L120 0H301L685 1440H504Z" />
<glyph unicode="0" horiz-adv-x="1252" d="M626 -30Q486 -30 377 33T204 206T140 456V984Q140 1124 203 1234T376 1407T626 1470Q766 1470 876 1407T1049 1234T1112 984V456Q1112 316 1049 207T876 34T626 -30ZM626 141Q711 141 780 182T890 292T931 446V995Q931
1080 890 1149T780 1259T626 1300Q542 1300 473 1259T362 1149T321 995V446Q321 362 362 293T472 182T626 141Z" />
<glyph unicode="1" horiz-adv-x="812" d="M391 0V1243L120 1079V1278L391 1440H572V0H391Z" />
<glyph unicode="2" horiz-adv-x="1157" d="M100 1L101 161L740 736Q820 808 847 872T875 1005Q875 1088 837 1155T734 1261T585 1300Q499 1300 432 1260T327 1152T289 1006H107Q107 1142 170 1246T341 1410T588 1470Q722 1470 828 1409T995 1242T1057 1003Q1057
909 1034 840T961 713T838 588L307 111L284 171H1057V1H100Z" />
<glyph unicode="3" horiz-adv-x="1125" d="M535 -28Q428 -28 336 11T178 123T80 296L251 345Q284 245 361 193T534 142Q622 144 686 182T786 288T822 443Q822 577 742 660T532 744Q496 744 457 734T383 706L297 847L831 1330L854 1270H137V1440H986V1269L531 833L529
896Q672 906 779 849T945 686T1005 443Q1005 305 943 199T775 33T535 -28Z" />
<glyph unicode="4" horiz-adv-x="1192" d="M762 0V265H100V434L575 1440H777L302 434H762V839H942V434H1092V265H942V0H762Z" />
<glyph unicode="5" horiz-adv-x="1161" d="M566 -30Q455 -30 360 16T197 142T100 328L271 374Q289 303 335 252T442 172T571 143Q659 143 729 185T841 298T882 453Q882 540 840 610T726 722T571 763Q476 763 409 724T302 627L144 687L188 1440H961V1271H274L353
1345L316 742L277 793Q337 857 420 892T591 927Q725 927 831 865T999 695T1061 453Q1061 320 993 211T813 36T566 -30Z" />
<glyph unicode="6" horiz-adv-x="1242" d="M631 -30Q494 -30 383 36T206 216T140 475V954Q140 1105 205 1221T385 1403T647 1469Q766 1469 868 1421T1041 1281L908 1163Q865 1226 796 1263T647 1300Q552 1300 479 1255T363 1135T321 974V685L282 729Q345 819 442
873T652 927Q786 927 892 864T1060 694T1122 452Q1122 318 1055 209T877 35T631 -30ZM631 142Q717 142 788 183T900 295T942 452Q942 538 901 609T789 721T632 763Q546 763 476 722T363 609T321 452Q321 367 362 297T474 184T631 142Z" />
<glyph unicode="7" horiz-adv-x="1025" d="M216 0L734 1269H80V1440H925V1269L408 0H216Z" />
<glyph unicode="8" horiz-adv-x="1182" d="M590 -30Q452 -30 346 25T180 180T120 411Q120 540 181 644T367 804L364 739Q263 788 209 877T155 1076Q155 1198 211 1286T365 1422T590 1470Q717 1470 815 1422T969 1286T1025 1076Q1025 967 974 879T817 739L813 803Q937
749 999 645T1062 411Q1062 279 1002 180T835 26T590 -30ZM590 140Q716 140 794 209T873 411Q873 544 796 613T590 683Q463 683 386 614T308 411Q308 279 386 210T590 140ZM590 854Q700 854 768 909T836 1076Q836 1187 768 1242T590 1298Q481 1298 413 1243T344
1076Q344 965 412 910T590 854Z" />
<glyph unicode="9" horiz-adv-x="1242" d="M611 1469Q748 1469 859 1403T1036 1223T1102 964V485Q1102 334 1037 218T857 36T595 -30Q476 -30 374 18T201 158L334 276Q377 213 446 176T595 139Q690 139 763 184T879 304T921 465V754L960 710Q897 620 800 566T590
512Q456 512 350 575T182 745T120 987Q120 1121 187 1230T365 1404T611 1469ZM611 1297Q525 1297 454 1256T342 1144T300 987Q300 901 341 830T453 718T610 676Q696 676 766 717T879 830T921 987Q921 1072 880 1142T768 1255T611 1297Z" />
<glyph unicode=":" horiz-adv-x="627" d="M220 150V346H416V150H220ZM221 734V930H417V734H221Z" />
<glyph unicode=";" horiz-adv-x="636" d="M220 -224L231 -141Q273 -144 294 -125T321 -73T323 0H220V226H416V-30Q416 -135 365 -188T220 -224ZM220 884V1080H416V884H220Z" />
<glyph unicode="&lt;" horiz-adv-x="1244" d="M753 157L280 630L753 1103L865 992L497 630L865 268L753 157Z" />
<glyph unicode="=" horiz-adv-x="1500" d="M240 823V970H1260V823H240ZM240 470V617H1260V470H240Z" />
<glyph unicode="&gt;" horiz-adv-x="1244" d="M491 157L964 630L491 1103L379 992L747 630L379 268L491 157Z" />
<glyph unicode="?" horiz-adv-x="1067" d="M415 392Q415 467 424 528T466 648Q495 704 535 739T621 808T712 889Q752 934 765 979T778 1076Q778 1121 768 1157T733 1220Q697 1265 644 1282T532 1299Q477 1299 429 1284T348 1237Q316 1208 301 1167T286 1077H100Q106
1164 141 1242T240 1372Q299 1422 375 1445T528 1469Q630 1469 721 1438T874 1335Q921 1284 944 1218T967 1079Q967 990 932 913T836 774Q803 738 765 708T692 648T637 582Q611 535 608 496T604 392H415ZM416 0V219H604V0H416Z" />
<glyph unicode="@" horiz-adv-x="1814" d="M908 -210Q747 -210 611 -155T373 -1T216 232T160 523Q160 701 216 842T374 1084T612 1237T909 1290Q1099 1290 1241 1231T1476 1069T1614 837T1653 568Q1646 377 1568 277T1339 177Q1251 177 1181 218T1086 336L1139
332Q1101 258 1031 227T886 195Q790 195 718 236T604 352T562 525Q562 627 605 701T722 815T889 856Q954 856 1024 829T1132 747L1092 699V828H1212L1210 486Q1210 411 1242 368T1344 325Q1397 325 1429 355T1478 437T1496 560Q1501 714 1454 824T1324 1005T1136
1109T919 1143Q774 1143 662 1096T472 965T355 768T317 526Q320 395 365 287T490 100T679 -20T916 -63Q994 -63 1071 -44T1211 8L1263 -126Q1181 -168 1091 -189T908 -210ZM896 344Q971 344 1019 387T1068 526Q1068 617 1023 663T900 709Q810 709 764 661T717 526Q717
439 765 392T896 344Z" />
<glyph unicode="A" horiz-adv-x="1292" d="M40 0L522 1440H770L1252 0H1067L616 1336H672L225 0H40ZM272 337V504H1020V337H272Z" />
<glyph unicode="B" horiz-adv-x="1238" d="M140 0V1440H701Q830 1440 921 1387T1061 1248T1110 1061Q1110 944 1050 856T888 735L886 784Q1025 747 1102 648T1179 412Q1179 286 1128 194T980 51T751 0H140ZM320 170H717Q797 170 860 199T959 283T996 413Q996 486
964 544T873 636T737 671H320V170ZM320 839H699Q763 839 814 866T896 944T927 1061Q927 1154 864 1213T699 1272H320V839Z" />
<glyph unicode="C" horiz-adv-x="1446" d="M732 -30Q517 -30 367 65T139 329T60 720Q60 942 138 1111T367 1375T732 1470Q982 1470 1143 1343T1366 1001L1185 953Q1141 1114 1028 1207T732 1300Q571 1300 464 1227T303 1024T248 720Q247 548 301 418T463 214T732
140Q915 140 1028 233T1185 487L1366 439Q1305 225 1144 98T732 -30Z" />
<glyph unicode="D" horiz-adv-x="1362" d="M140 0V1440H584Q606 1440 661 1439T766 1431Q933 1409 1045 1310T1215 1057T1272 720Q1272 536 1215 383T1046 131T766 9Q716 3 661 2T584 0H140ZM323 170H584Q622 170 669 172T751 181Q869 203 942 280T1049 472T1083
720Q1083 856 1049 971T941 1162T751 1259Q716 1266 668 1268T584 1270H323V170Z" />
<glyph unicode="E" horiz-adv-x="1150" d="M140 0V1440H1050V1271H318V820H930V651H318V169H1050V0H140Z" />
<glyph unicode="F" horiz-adv-x="1020" d="M140 0V1440H980V1262H318V809H860V631H318V0H140Z" />
<glyph unicode="G" horiz-adv-x="1428" d="M723 -30Q575 -30 453 22T243 171T108 407T60 720Q60 950 142 1118T373 1377T723 1469Q965 1469 1113 1357T1317 1049L1137 1012Q1092 1143 989 1221T732 1299Q571 1300 465 1228T304 1024T249 720Q248 548 302 418T463
215T732 140Q871 139 966 193T1113 349T1176 594H870V741H1364Q1367 721 1367 694T1368 656Q1368 459 1295 304T1078 59T723 -30Z" />
<glyph unicode="H" horiz-adv-x="1394" d="M140 0V1440H318V805H1076V1440H1254V0H1076V636H318V0H140Z" />
<glyph unicode="I" horiz-adv-x="498" d="M160 0V1440H338V0H160Z" />
<glyph unicode="J" horiz-adv-x="952" d="M400 -29Q249 -29 144 53T0 273L177 315Q193 242 254 191T396 140Q448 140 502 165T585 249Q605 289 608 337T611 452V1440H791V452Q791 390 791 341T781 248T744 157Q690 62 600 17T400 -29Z" />
<glyph unicode="K" horiz-adv-x="1223" d="M140 0V1440H318V764L948 1440H1172L518 741L1223 0H993L318 704V0H140Z" />
<glyph unicode="L" horiz-adv-x="1036" d="M160 0V1440H338V169H1006V0H160Z" />
<glyph unicode="M" horiz-adv-x="1691" d="M140 0V1440H302L846 293L1387 1440H1551V1H1382V1049L893 0H798L309 1049V0H140Z" />
<glyph unicode="N" horiz-adv-x="1391" d="M140 0V1440H320L1071 315V1440H1251V0H1071L320 1126V0H140Z" />
<glyph unicode="O" horiz-adv-x="1464" d="M732 -30Q517 -30 367 65T139 329T60 720Q60 942 138 1111T367 1375T732 1470Q948 1470 1098 1375T1326 1111T1404 720Q1404 498 1326 329T1098 65T732 -30ZM732 140Q893 139 1000 212T1161 417T1215 720Q1215 893 1162
1023T1001 1226T732 1300Q571 1301 465 1228T304 1024T249 720Q248 548 302 418T463 215T732 140Z" />
<glyph unicode="P" horiz-adv-x="1231" d="M140 0V1440H709Q730 1440 759 1439T815 1432Q932 1414 1011 1352T1131 1196T1171 986Q1171 872 1131 778T1011 621T815 540Q788 536 759 534T709 532H318V0H140ZM318 701H703Q722 701 746 703T793 710Q862 726 905 768T969
868T989 986Q989 1046 969 1103T906 1204T793 1262Q771 1268 747 1269T703 1271H318V701Z" />
<glyph unicode="Q" horiz-adv-x="1464" d="M1270 -29L877 362L994 479L1385 88L1270 -29ZM732 -30Q517 -30 367 65T139 329T60 720Q60 942 138 1111T367 1375T732 1470Q948 1470 1098 1375T1326 1111T1404 720Q1404 498 1326 329T1098 65T732 -30ZM732 140Q893
139 1000 212T1161 417T1215 720Q1215 893 1162 1023T1001 1226T732 1300Q571 1301 465 1228T304 1024T249 720Q248 548 302 418T463 215T732 140Z" />
<glyph unicode="R" horiz-adv-x="1281" d="M140 0V1440H709Q730 1440 759 1439T815 1432Q932 1414 1011 1352T1131 1196T1171 986Q1171 819 1084 697T829 543L761 532H318V0H140ZM997 0L713 586L889 640L1201 0H997ZM318 701H703Q722 701 746 703T793 710Q862
726 905 768T969 868T989 986Q989 1046 969 1103T906 1204T793 1262Q771 1268 747 1269T703 1271H318V701Z" />
<glyph unicode="S" horiz-adv-x="1260" d="M651 -30Q498 -30 376 22T174 170T70 399L254 428Q289 292 399 216T660 139Q757 139 835 169T960 257T1006 392Q1006 440 990 474T945 533T880 575T805 603L438 712Q378 730 322 757T222 826T152 926T126 1065Q126 1193
192 1283T373 1422T630 1469Q775 1468 889 1418T1079 1273T1181 1048L992 1015Q977 1103 926 1166T797 1264T628 1300Q540 1301 469 1272T356 1192T314 1073Q314 1007 352 967T445 903T554 864L828 785Q875 772 936 749T1056 685T1152 575T1190 402Q1190 298 1149
217T1033 82T861 -1T651 -30Z" />
<glyph unicode="T" horiz-adv-x="1200" d="M511 0V1271H20V1440H1180V1271H689V0H511Z" />
<glyph unicode="U" horiz-adv-x="1416" d="M708 -30Q541 -30 413 39T213 232T140 525V1439L320 1440V540Q320 438 354 363T446 237T571 163T708 138Q777 138 846 163T971 237T1062 363T1096 540V1440H1276V525Q1276 358 1204 233T1003 39T708 -30Z" />
<glyph unicode="V" horiz-adv-x="1232" d="M492 0L10 1440H195L614 189L1037 1440H1222L740 0H492Z" />
<glyph unicode="W" horiz-adv-x="1898" d="M447 0L30 1440H216L536 301L855 1439L1042 1440L1362 301L1681 1440H1868L1451 0H1273L949 1129L625 0H447Z" />
<glyph unicode="X" horiz-adv-x="1245" d="M20 0L515 729L33 1440H250L623 879L995 1440H1213L731 729L1225 0H1008L623 578L238 0H20Z" />
<glyph unicode="Y" horiz-adv-x="1149" d="M485 0V599L0 1440H207L575 803L942 1440H1149L665 599V0H485Z" />
<glyph unicode="Z" horiz-adv-x="1261" d="M100 0V32L861 1271H130V1440H1161V1406L404 169H1151V0H100Z" />
<glyph unicode="[" horiz-adv-x="825" d="M280 -432V1782H675V1620H442V-270H675V-432H280Z" />
<glyph unicode="\" horiz-adv-x="805" d="M301 1440L685 0H504L120 1440H301Z" />
<glyph unicode="]" horiz-adv-x="825" d="M545 -432V1782H150V1620H383V-270H150V-432H545Z" />
<glyph unicode="^" horiz-adv-x="1346" d="M211 998L683 1471L1157 999L1046 887L683 1254L322 886L211 998Z" />
<glyph unicode="_" horiz-adv-x="1320" d="M0 -223V-76H1320V-223H0Z" />
<glyph unicode="`" horiz-adv-x="1012" d="M455 1590L379 1830H557L633 1590H455Z" />
<glyph unicode="a" horiz-adv-x="1125" d="M447 -30Q326 -30 245 14T122 132T80 292Q80 377 112 439T204 543T345 609Q422 630 517 645T711 674T894 699L830 662Q833 806 773 875T564 944Q466 944 393 900T289 755L120 806Q159 948 271 1029T566 1110Q713 1110
818 1058T970 899Q993 849 999 791T1005 668V0H847V259L884 235Q823 104 714 37T447 -30ZM474 119Q570 119 640 153T754 244T810 368Q825 418 826 479T828 574L890 547Q803 535 719 524T560 501T425 471Q381 457 343 435T281 379T257 293Q257 249 279 209T349 144T474
119Z" />
<glyph unicode="b" horiz-adv-x="1200" d="M636 -30Q484 -30 380 45T223 250T169 541Q169 704 222 833T380 1036T637 1110Q787 1110 895 1036T1062 832T1120 541Q1120 379 1062 250T896 46T636 -30ZM139 0V1440H318V795H298V0H139ZM614 133Q721 133 791 187T896
333T931 541Q931 655 897 747T791 893T609 947Q504 947 435 896T332 753T298 541Q298 423 331 331T435 186T614 133Z" />
<glyph unicode="c" horiz-adv-x="1122" d="M595 -30Q431 -30 317 43T142 246T80 540Q82 709 143 837T320 1038T597 1110Q768 1110 891 1026T1057 796L881 743Q847 837 771 889T595 941Q484 941 412 890T305 748T269 540Q271 360 352 250T595 139Q701 139 771 187T877
328L1057 281Q1001 130 882 50T595 -30Z" />
<glyph unicode="d" horiz-adv-x="1201" d="M564 -30Q413 -30 305 45T139 250T80 541Q80 703 138 832T305 1035T563 1110Q716 1110 820 1036T977 833T1031 541Q1031 380 978 251T820 46T564 -30ZM586 133Q695 133 765 185T868 330T902 541Q902 661 869 752T766
895T591 947Q481 947 410 893T304 747T269 541Q269 426 304 334T409 187T586 133ZM902 0V795H882V1440H1061V0H902Z" />
<glyph unicode="e" horiz-adv-x="1181" d="M608 -30Q449 -30 331 40T146 237T80 533Q80 710 145 839T326 1039T600 1110Q763 1110 877 1035T1049 821T1099 490H919V554Q916 753 838 851T606 950Q441 950 355 844T269 540Q269 349 355 244T600 139Q707 139 786
188T910 329L1081 270Q1018 127 892 49T608 -30ZM209 490V633H1007V490H209Z" />
<glyph unicode="f" horiz-adv-x="725" d="M243 0V1139Q243 1181 247 1224T265 1309T311 1386Q348 1427 392 1444T481 1466T568 1470H705V1322H578Q499 1322 460 1284T421 1167V0H243ZM60 933V1080H705V933H60Z" />
<glyph unicode="g" horiz-adv-x="1200" d="M577 -510Q492 -510 411 -484T263 -406T150 -273L313 -187Q353 -266 426 -302T578 -338Q681 -338 749 -301T849 -189T881 -5V290H902V1080H1060V-7Q1060 -51 1058 -92T1047 -173Q1026 -288 964 -362T804 -473T577 -510ZM564
-30Q413 -30 305 45T139 250T80 541Q80 703 138 832T305 1035T563 1110Q716 1110 820 1036T977 833T1031 541Q1031 380 978 251T820 46T564 -30ZM586 133Q695 133 765 185T868 330T902 541Q902 661 869 752T766 895T591 947Q481 947 410 893T304 747T269 541Q269
426 304 334T409 187T586 133Z" />
<glyph unicode="h" horiz-adv-x="1209" d="M909 0V541Q909 618 896 689T849 816T759 906T616 939Q549 939 495 917T401 848T341 733T319 569L202 605Q202 762 258 874T417 1047T659 1108Q764 1108 838 1075T961 988T1038 866T1077 729T1089 597V0H909ZM139 0V1440H299V645H319V0H139Z"
/>
<glyph unicode="i" horiz-adv-x="498" d="M160 1271V1455H338V1271H160ZM160 0V1080H338V0H160Z" />
<glyph unicode="j" horiz-adv-x="526" d="M-20 -480V-310H38Q116 -310 157 -271T198 -147V1080H376V-208Q376 -341 308 -410T105 -480H-20ZM198 1271V1455H376V1271H198Z" />
<glyph unicode="k" horiz-adv-x="1020" d="M139 0L140 1440H320V560L773 1080H1004L527 540L1060 0H811L320 520V0H139Z" />
<glyph unicode="l" horiz-adv-x="498" d="M160 0V1470H338V0H160Z" />
<glyph unicode="m" horiz-adv-x="1730" d="M1431 0L1432 691Q1432 812 1368 880T1200 949Q1140 949 1086 922T998 836T964 686L870 724Q868 839 917 925T1053 1060T1247 1108Q1416 1108 1513 1006T1610 730L1609 0H1431ZM139 0V1080H298V791H318V0H139ZM786 0L787
684Q787 808 723 878T553 949Q448 949 383 877T318 686L224 742Q224 847 274 930T410 1060T605 1108Q714 1108 795 1062T920 931T964 727L963 0H786Z" />
<glyph unicode="n" horiz-adv-x="1209" d="M909 0V541Q909 618 896 689T849 816T759 906T616 939Q549 939 495 917T401 848T341 733T319 569L202 605Q202 762 258 874T417 1047T659 1108Q764 1108 838 1075T961 988T1038 866T1077 729T1089 597V0H909ZM139 0V1080H299V791H319V0H139Z"
/>
<glyph unicode="o" horiz-adv-x="1201" d="M600 -30Q439 -30 323 43T143 245T80 541Q80 711 144 839T325 1038T600 1110Q762 1110 879 1038T1058 837T1121 541Q1121 372 1058 244T878 43T600 -30ZM600 139Q768 139 850 251T932 541Q932 724 849 832T600 941Q487
941 414 890T305 749T269 541Q269 359 353 249T600 139Z" />
<glyph unicode="p" horiz-adv-x="1200" d="M636 -30Q484 -30 380 45T223 250T169 541Q169 704 222 833T380 1036T637 1110Q787 1110 895 1036T1062 832T1120 541Q1120 379 1062 250T896 46T636 -30ZM139 -480V1080H298V285H318V-480H139ZM614 133Q721 133 791
187T896 333T931 541Q931 655 897 747T791 893T609 947Q504 947 435 896T332 753T298 541Q298 423 331 331T435 186T614 133Z" />
<glyph unicode="q" horiz-adv-x="1201" d="M564 -30Q413 -30 305 45T139 250T80 541Q80 703 138 832T305 1035T563 1110Q716 1110 820 1036T977 833T1031 541Q1031 380 978 251T820 46T564 -30ZM586 133Q695 133 765 185T868 330T902 541Q902 661 869 752T766
895T591 947Q481 947 410 893T304 747T269 541Q269 426 304 334T409 187T586 133ZM882 -480V285H902V1080H1061V-480H882Z" />
<glyph unicode="r" horiz-adv-x="747" d="M140 0V1080H299V819L273 853Q292 903 322 945T391 1014Q433 1048 486 1066T594 1087T697 1080V913Q641 928 574 921T450 872Q398 835 370 782T330 668T319 542V0H140Z" />
<glyph unicode="s" horiz-adv-x="1061" d="M548 -29Q355 -29 232 55T80 292L262 321Q284 233 363 182T559 130Q670 130 733 176T796 301Q796 347 775 375T689 429T491 489Q348 527 266 568T149 663T114 794Q114 889 166 960T311 1071T529 1110Q652 1110 749 1071T905
961T976 794L794 761Q781 848 711 898T529 951Q424 955 359 914T293 803Q293 764 317 736T408 683T602 626Q745 590 827 548T945 448T980 306Q980 150 865 61T548 -29Z" />
<glyph unicode="t" horiz-adv-x="823" d="M743 0Q647 -19 554 -16T387 22T276 130Q244 194 242 259T239 408V1380H417V416Q417 350 418 303T439 222Q475 158 553 147T743 153V0ZM20 933V1080H743V933H20Z" />
<glyph unicode="u" horiz-adv-x="1209" d="M550 -28Q446 -28 372 5T248 93T171 215T132 352T120 483V1080H300V539Q300 463 314 392T361 264T451 174T593 141Q660 141 715 164T809 232T869 348T890 511L1007 475Q1007 319 951 206T792 33T550 -28ZM910 0V289H890V1080H1069V0H910Z"
/>
<glyph unicode="v" horiz-adv-x="1046" d="M432 0L40 1080H220L523 227L825 1080H1006L614 0H432Z" />
<glyph unicode="w" horiz-adv-x="1558" d="M370 0L40 1081L217 1080L458 290L701 1080H858L1100 290L1342 1080H1518L1188 0H1040L779 821L518 0H370Z" />
<glyph unicode="x" horiz-adv-x="1072" d="M20 0L433 546L29 1080H241L537 684L830 1080H1042L638 546L1052 0H839L537 408L233 0H20Z" />
<glyph unicode="y" horiz-adv-x="1076" d="M290 -480L499 88L502 -80L30 1080H217L587 147H523L870 1080H1051L463 -480H290Z" />
<glyph unicode="z" horiz-adv-x="1062" d="M40 0V32L695 918H94V1080H982V1046L328 162H948V0H40Z" />
<glyph unicode="{" horiz-adv-x="859" d="M649 -432Q536 -432 467 -362T397 -181V454Q397 482 381 506L295 627Q280 649 280 675T295 723L381 844Q397 870 397 896V1530Q397 1642 466 1712T649 1782H774V1612H659Q621 1612 594 1586T567 1520V896Q567 814 519
746L468 675L519 604Q567 537 567 454V-171Q567 -209 594 -236T659 -263H774V-432H649Z" />
<glyph unicode="|" horiz-adv-x="538" d="M180 0V1440H358V0H180Z" />
<glyph unicode="}" horiz-adv-x="859" d="M210 -432Q323 -432 392 -362T462 -181V454Q462 482 478 506L564 627Q579 649 579 675T564 723L478 844Q462 870 462 896V1530Q462 1642 393 1712T210 1782H85V1612H200Q238 1612 265 1586T292 1520V896Q292 814 340 746L391
675L340 604Q292 537 292 454V-171Q292 -209 265 -236T200 -263H85V-432H210Z" />
<glyph unicode="~" horiz-adv-x="1360" d="M899 447Q837 447 779 473T668 533T566 593T476 619Q425 619 409 575T410 475H241Q218 569 236 645T311 767T459 812Q522 812 580 786T692 726T794 666T884 640Q931 640 949 683T950 787H1119Q1142 694 1124 617T1050
494T899 447Z" />
<glyph unicode="&#xa0;" horiz-adv-x="400" />
<glyph unicode="&#xa1;" horiz-adv-x="658" d="M240 1080V896H418V1080H240ZM240 720V-360H418V720H240Z" />
<glyph unicode="&#xa2;" horiz-adv-x="1122" d="M529 -59V124Q385 139 286 215T134 413T80 690Q82 847 135 969T287 1165T529 1255V1440H676V1254Q817 1236 918 1156T1057 946L881 893Q847 987 771 1039T595 1091Q484 1091 412 1040T305 898T269 690Q271 510 352
400T595 289Q701 289 771 337T877 478L1057 431Q1006 299 909 222T676 126V-59H529Z" />
<glyph unicode="&#xa3;" horiz-adv-x="1142" d="M70 0V169H147Q207 169 249 212T291 314V1091Q291 1201 342 1287T482 1421T679 1470Q777 1470 851 1427T979 1304T1072 1112L910 1059Q873 1178 818 1239T678 1300Q585 1300 529 1241T472 1084L471 169H1005V0H70ZM70
643V813H815V643H70Z" />
<glyph unicode="&#xa4;" horiz-adv-x="1302" d="M651 196Q543 196 448 237T281 350T168 518T127 722Q127 830 168 925T281 1092T448 1205T651 1246Q760 1246 855 1205T1022 1092T1136 925T1177 722Q1177 613 1136 518T1023 351T855 237T651 196ZM180 130L60 250L283
473L404 353L180 130ZM284 966L60 1190L180 1310L403 1087L284 966ZM1122 130L899 353L1019 473L1242 250L1122 130ZM651 352Q753 352 837 402T970 536T1020 720Q1020 822 970 906T835 1039T651 1089Q549 1089 466 1040T333 906T283 720Q283 620 332 537T465 403T651
352ZM1019 967L899 1087L1122 1310L1242 1190L1019 967Z" />
<glyph unicode="&#xa5;" horiz-adv-x="1149" d="M185 519V666H965V519H185ZM185 216V363H965V216H185ZM485 0V599L0 1440H207L575 803L942 1440H1149L665 599V0H485Z" />
<glyph unicode="&#xa6;" horiz-adv-x="538" d="M180 676V1440H358V676H180ZM180 -344V420H358V-344H180Z" />
<glyph unicode="&#xa7;" horiz-adv-x="1061" d="M551 -299Q447 -299 355 -266T197 -161T110 22L292 51Q309 -16 352 -58T450 -120T561 -140Q617 -140 666 -121T745 -64T776 31Q776 86 744 116T645 169T471 219Q354 250 270 286T140 377T94 514Q94 613 152 675T298
765T479 786L489 721Q393 695 333 650T273 536Q273 482 312 452T421 401T582 356Q699 325 783 289T914 195T960 38Q960 -72 906 -147T760 -260T551 -299ZM612 253L609 320Q657 325 702 349T777 413T806 511Q806 566 774 596T675 649T501 699Q384 730 300 766T170
858T124 1004Q124 1112 182 1182T329 1286T513 1320Q616 1320 705 1282T854 1174T926 1004L744 971Q732 1041 696 1082T609 1143T504 1162Q450 1162 404 1145T331 1095T303 1016Q303 962 343 931T454 880T612 836Q728 805 813 769T944 676T990 522Q990 421 941
354T807 261T612 253Z" />
<glyph unicode="&#xa8;" horiz-adv-x="1052" d="M632 1636V1816H812V1636H632ZM240 1636V1816H420V1636H240Z" />
<glyph unicode="&#xa9;" horiz-adv-x="1662" d="M831 -75Q672 -75 532 -15T286 151T120 397T60 696Q60 856 120 996T286 1241T532 1407T831 1467Q991 1467 1131 1407T1376 1242T1542 996T1602 696Q1602 537 1542 397T1377 151T1131 -15T831 -75ZM842 273Q748 273
676 304T549 404Q497 470 477 545T456 698Q457 779 478 853T549 989Q604 1056 677 1088T849 1121Q904 1121 951 1110T1047 1069Q1098 1039 1135 992T1189 881L1046 840Q1035 870 1015 897T967 946Q941 966 909 975T842 985Q788 985 743 963T666 901Q634 860 622
807T610 699Q610 641 623 588T666 494Q696 453 741 432T843 410Q919 410 970 447Q997 468 1014 492T1043 547L1189 511Q1169 454 1135 410T1061 336Q1016 305 964 289T842 273ZM831 96Q955 96 1063 142T1254 271T1383 463T1430 697Q1430 821 1384 929T1255 1120T1064
1249T831 1296Q706 1296 597 1250T406 1121T277 930T230 697Q230 572 276 463T405 272T597 143T831 96Z" />
<glyph unicode="&#xaa;" horiz-adv-x="1125" d="M447 -30Q326 -30 245 14T122 132T80 292Q80 377 112 439T204 543T345 609Q422 630 517 645T711 674T894 699L830 662Q833 806 773 875T564 944Q466 944 393 900T289 755L120 806Q159 948 271 1029T566 1110Q713
1110 818 1058T970 899Q993 849 999 791T1005 668V0H847V259L884 235Q823 104 714 37T447 -30ZM474 119Q570 119 640 153T754 244T810 368Q825 418 826 479T828 574L890 547Q803 535 719 524T560 501T425 471Q381 457 343 435T281 379T257 293Q257 249 279 209T349
144T474 119Z" />
<glyph unicode="&#xab;" horiz-adv-x="1105" d="M873 103L525 541L873 978L975 898L690 541L975 183L873 103ZM508 103L160 541L508 978L610 898L325 541L610 183L508 103Z" />
<glyph unicode="&#xac;" horiz-adv-x="1200" d="M933 384V627H120V774H1080V384H933Z" />
<glyph unicode="&#xad;" horiz-adv-x="840" d="M120 557V704H720V557H120Z" />
<glyph unicode="&#xae;" horiz-adv-x="1270" d="M635 565Q533 565 443 603T285 710T179 868T140 1061Q140 1163 178 1252T285 1410T443 1516T635 1555Q738 1555 827 1517T985 1410T1091 1253T1130 1061Q1130 958 1092 869T985 711T828 604T635 565ZM636 695Q736
695 819 745T951 878T1001 1061Q1001 1162 952 1245T819 1377T636 1426Q535 1426 452 1377T320 1245T270 1061Q270 961 319 878T452 745T636 695ZM471 829V1297H673Q741 1297 785 1254T830 1144Q830 1103 809 1066T745 1007L833 829H741L662 992H552V829H471ZM552
1068H674Q704 1068 725 1090T747 1144Q747 1180 726 1200T674 1220H552V1068Z" />
<glyph unicode="&#xaf;" horiz-adv-x="992" d="M240 1680V1826H752V1680H240Z" />
<glyph unicode="&#xb0;" horiz-adv-x="900" d="M420 750Q321 750 239 798T109 928T60 1110Q60 1208 110 1290T242 1421T420 1470Q519 1470 600 1422T731 1292T780 1110Q780 1010 731 929T601 799T420 750ZM420 907Q475 907 521 935T595 1009T623 1110Q623 1165
596 1211T522 1285T420 1313Q365 1313 319 1286T245 1212T217 1110Q217 1055 245 1009T319 935T420 907Z" />
<glyph unicode="&#xb1;" horiz-adv-x="1200" d="M527 440V687H120V834H527V1080H674V834H1080V687H674V440H527ZM120 148V295H1080V148H120Z" />
<glyph unicode="&#xb2;" horiz-adv-x="808" d="M100 540L101 652L495 1007Q543 1050 560 1088T578 1165Q578 1240 530 1290T408 1341Q357 1341 317 1317T255 1253T233 1167H103Q103 1254 142 1320T251 1423T410 1460Q495 1460 562 1422T669 1316T708 1164Q708
1103 692 1060T644 981T563 901L241 611L222 660H708V540H100Z" />
<glyph unicode="&#xb3;" horiz-adv-x="789" d="M369 519Q269 519 189 575T80 728L202 762Q221 702 267 671T369 640Q446 641 493 690T540 816Q540 894 493 943T368 993Q346 993 324 987T280 971L220 1070L556 1370L575 1320H116V1440H657V1319L374 1049L371 1100Q462
1105 529 1069T632 966T669 816Q669 730 630 663T522 558T369 519Z" />
<glyph unicode="&#xb4;" horiz-adv-x="1012" d="M557 1590H379L455 1830H633L557 1590Z" />
<glyph unicode="&#xb5;" horiz-adv-x="1228" d="M139 -480V1080H319V539Q319 463 333 392T380 264T470 174T612 141Q679 141 734 164T828 232T888 348T909 511V1080H1088V0H929V143Q870 59 778 16T569 -28Q482 -28 414 1T298 84V-480H139Z" />
<glyph unicode="&#xb6;" horiz-adv-x="1323" d="M683 -282V532H592Q579 532 550 533T486 540Q371 558 292 620T171 777T130 986Q130 1100 170 1194T290 1352T486 1432Q521 1438 549 1439T592 1440H861V-282H683ZM1015 -282V1440H1193V-282H1015Z" />
<glyph unicode="&#xb7;" horiz-adv-x="480" d="M243 510Q192 510 156 544T120 630Q120 682 156 716T243 750Q291 750 325 716T360 630Q360 579 326 545T243 510Z" />
<glyph unicode="&#xb8;" horiz-adv-x="805" d="M371 -481Q334 -481 302 -472T240 -448L283 -333Q328 -349 356 -349Q392 -349 411 -327T431 -279Q431 -235 391 -216T299 -181L372 24L493 25L446 -107Q501 -132 534 -175T567 -284Q567 -369 509 -425T371 -481Z" />
<glyph unicode="&#xb9;" horiz-adv-x="658" d="M290 540V1302L120 1199V1339L290 1440H418V540H290Z" />
<glyph unicode="&#xba;" horiz-adv-x="1201" d="M600 -30Q439 -30 323 43T143 245T80 541Q80 711 144 839T325 1038T600 1110Q762 1110 879 1038T1058 837T1121 541Q1121 372 1058 244T878 43T600 -30ZM600 139Q768 139 850 251T932 541Q932 724 849 832T600 941Q487
941 414 890T305 749T269 541Q269 359 353 249T600 139Z" />
<glyph unicode="&#xbb;" horiz-adv-x="1105" d="M232 103L580 541L232 978L130 898L415 541L130 183L232 103ZM597 103L945 541L597 978L495 898L780 541L495 183L597 103Z" />
<glyph unicode="&#xbc;" horiz-adv-x="1988" d="M290 540V1302L120 1199V1339L290 1440H418V540H290ZM1531 0V159H1122V279L1416 900H1560L1266 279H1531V525H1658V279H1748V159H1658V0H1531ZM429 0L315 87L1344 1447L1457 1360L429 0Z" />
<glyph unicode="&#xbd;" horiz-adv-x="1922" d="M290 540V1302L120 1199V1339L290 1440H418V540H290ZM1214 0L1215 112L1609 467Q1657 510 1674 548T1692 625Q1692 700 1644 750T1522 801Q1471 801 1431 777T1368 713T1347 627H1217Q1217 714 1256 780T1365 883T1524
920Q1609 920 1676 882T1782 776T1822 624Q1822 563 1806 520T1757 441T1677 361L1355 71L1336 120H1822V0H1214ZM429 0L315 87L1344 1447L1457 1360L429 0Z" />
<glyph unicode="&#xbe;" horiz-adv-x="1991" d="M369 519Q269 519 189 575T80 728L202 762Q221 702 267 671T369 640Q446 641 493 690T540 816Q540 894 493 943T368 993Q346 993 324 987T280 971L220 1070L556 1370L575 1320H116V1440H657V1319L374 1049L371 1100Q462
1105 529 1069T632 966T669 816Q669 730 630 663T522 558T369 519ZM1654 0V159H1245V279L1539 900H1683L1389 279H1654V525H1781V279H1871V159H1781V0H1654ZM560 0L446 87L1475 1447L1588 1360L560 0Z" />
<glyph unicode="&#xbf;" horiz-adv-x="1067" d="M652 688Q652 613 643 552T601 432Q572 376 532 341T446 272T355 191Q315 146 302 101T289 4Q289 -41 299 -77T334 -140Q370 -185 423 -202T535 -219Q590 -219 638 -204T719 -157Q751 -128 766 -87T781 3H967Q961
-84 926 -162T827 -292Q768 -342 692 -365T539 -389Q437 -389 346 -358T193 -255Q146 -204 123 -138T100 1Q100 90 135 167T231 306Q264 342 302 372T375 432T430 498Q456 545 459 584T463 688H652ZM651 1080V861H463V1080H651Z" />
<glyph unicode="&#xc0;" horiz-adv-x="1292" d="M542 1590H720L644 1830H466L542 1590ZM1252 0L770 1440H522L40 0H225L676 1336H620L1067 0H1252ZM1020 337V504H272V337H1020Z" />
<glyph unicode="&#xc1;" horiz-adv-x="1292" d="M750 1590H572L648 1830H826L750 1590ZM40 0L522 1440H770L1252 0H1067L616 1336H672L225 0H40ZM272 337V504H1020V337H272Z" />
<glyph unicode="&#xc2;" horiz-adv-x="1292" d="M415 1572L344 1690L647 1875L950 1690L879 1572L647 1714L415 1572ZM40 0L522 1440H770L1252 0H1067L616 1336H672L225 0H40ZM272 337V504H1020V337H272Z" />
<glyph unicode="&#xc3;" horiz-adv-x="1292" d="M802 1658Q758 1658 717 1676T638 1719T566 1761T502 1780Q466 1780 455 1749T455 1678H335Q311 1778 352 1847T490 1917Q535 1917 576 1899T655 1856T728 1814T791 1795Q825 1795 838 1826T838 1899H958Q983 1801
942 1730T802 1658ZM40 0L522 1440H770L1252 0H1067L616 1336H672L225 0H40ZM272 337V504H1020V337H272Z" />
<glyph unicode="&#xc4;" horiz-adv-x="1292" d="M753 1636V1816H933V1636H753ZM361 1636V1816H541V1636H361ZM40 0L522 1440H770L1252 0H1067L616 1336H672L225 0H40ZM272 337V504H1020V337H272Z" />
<glyph unicode="&#xc5;" horiz-adv-x="1292" d="M647 1555Q584 1555 531 1586T447 1670T415 1787Q415 1851 446 1903T530 1987T647 2019Q712 2019 764 1988T848 1904T879 1787Q879 1723 848 1671T764 1587T647 1555ZM647 1667Q698 1667 732 1702T767 1787Q767
1837 733 1872T647 1907Q598 1907 563 1872T527 1787Q527 1738 562 1703T647 1667ZM40 0L522 1440H770L1252 0H1067L616 1336H672L225 0H40ZM272 337V504H1020V337H272Z" />
<glyph unicode="&#xc6;" horiz-adv-x="1850" d="M40 0L522 1440H905V1271H581L671 1335L225 0H40ZM272 337V504H970V337H272ZM840 0V1440H1750V1271H1018V820H1630V651H1018V169H1750V0H840Z" />
<glyph unicode="&#xc7;" horiz-adv-x="1446" d="M715 -481Q678 -481 646 -472T584 -448L627 -333Q672 -349 700 -349Q736 -349 755 -327T775 -279Q775 -235 735 -216T643 -181L716 24L837 25L790 -107Q845 -132 878 -175T911 -284Q911 -369 853 -425T715 -481ZM732
-30Q517 -30 367 65T139 329T60 720Q60 942 138 1111T367 1375T732 1470Q982 1470 1143 1343T1366 1001L1185 953Q1141 1114 1028 1207T732 1300Q571 1300 464 1227T303 1024T248 720Q247 548 301 418T463 214T732 140Q915 140 1028 233T1185 487L1366 439Q1305
225 1144 98T732 -30Z" />
<glyph unicode="&#xc8;" horiz-adv-x="1150" d="M537 1590L461 1830H639L715 1590H537ZM140 0V1440H1050V1271H318V820H930V651H318V169H1050V0H140Z" />
<glyph unicode="&#xc9;" horiz-adv-x="1150" d="M706 1590H528L604 1830H782L706 1590ZM140 0V1440H1050V1271H318V820H930V651H318V169H1050V0H140Z" />
<glyph unicode="&#xca;" horiz-adv-x="1150" d="M353 1572L282 1690L585 1875L888 1690L817 1572L585 1714L353 1572ZM140 0V1440H1050V1271H318V820H930V651H318V169H1050V0H140Z" />
<glyph unicode="&#xcb;" horiz-adv-x="1150" d="M685 1636V1816H865V1636H685ZM293 1636V1816H473V1636H293ZM140 0V1440H1050V1271H318V820H930V651H318V169H1050V0H140Z" />
<glyph unicode="&#xcc;" horiz-adv-x="498" d="M160 1590L84 1830H262L338 1590H160ZM160 0V1440H338V0H160Z" />
<glyph unicode="&#xcd;" horiz-adv-x="498" d="M338 1590H160L236 1830H414L338 1590ZM160 0V1440H338V0H160Z" />
<glyph unicode="&#xce;" horiz-adv-x="498" d="M17 1572L-54 1690L249 1875L552 1690L481 1572L249 1714L17 1572ZM160 0V1440H338V0H160Z" />
<glyph unicode="&#xcf;" horiz-adv-x="498" d="M355 1636V1816H535V1636H355ZM-37 1636V1816H143V1636H-37ZM160 0V1440H338V0H160Z" />
<glyph unicode="&#xd0;" horiz-adv-x="1355" d="M20 647V794H665V647H20ZM133 0V1440H577Q599 1440 654 1439T759 1431Q926 1409 1038 1310T1208 1057T1265 720Q1265 536 1208 383T1039 131T759 9Q709 3 654 2T577 0H133ZM316 170H577Q615 170 662 172T744 181Q862
203 935 280T1042 472T1076 720Q1076 856 1042 971T934 1162T744 1259Q709 1266 661 1268T577 1270H316V170Z" />
<glyph unicode="&#xd1;" horiz-adv-x="1391" d="M876 1608Q832 1608 791 1626T712 1669T640 1711T576 1730Q540 1730 529 1699T529 1628H409Q385 1728 426 1797T564 1867Q609 1867 650 1849T729 1806T802 1764T865 1745Q899 1745 912 1776T912 1849H1032Q1057
1751 1016 1680T876 1608ZM140 0V1440H320L1071 315V1440H1251V0H1071L320 1126V0H140Z" />
<glyph unicode="&#xd2;" horiz-adv-x="1464" d="M636 1590L560 1830H738L814 1590H636ZM732 -30Q517 -30 367 65T139 329T60 720Q60 942 138 1111T367 1375T732 1470Q948 1470 1098 1375T1326 1111T1404 720Q1404 498 1326 329T1098 65T732 -30ZM732 140Q893 139
1000 212T1161 417T1215 720Q1215 893 1162 1023T1001 1226T732 1300Q571 1301 465 1228T304 1024T249 720Q248 548 302 418T463 215T732 140Z" />
<glyph unicode="&#xd3;" horiz-adv-x="1464" d="M833 1590H655L731 1830H909L833 1590ZM732 -30Q517 -30 367 65T139 329T60 720Q60 942 138 1111T367 1375T732 1470Q948 1470 1098 1375T1326 1111T1404 720Q1404 498 1326 329T1098 65T732 -30ZM732 140Q893 139
1000 212T1161 417T1215 720Q1215 893 1162 1023T1001 1226T732 1300Q571 1301 465 1228T304 1024T249 720Q248 548 302 418T463 215T732 140Z" />
<glyph unicode="&#xd4;" horiz-adv-x="1464" d="M500 1572L429 1690L732 1875L1035 1690L964 1572L732 1714L500 1572ZM732 -30Q517 -30 367 65T139 329T60 720Q60 942 138 1111T367 1375T732 1470Q948 1470 1098 1375T1326 1111T1404 720Q1404 498 1326 329T1098
65T732 -30ZM732 140Q893 139 1000 212T1161 417T1215 720Q1215 893 1162 1023T1001 1226T732 1300Q571 1301 465 1228T304 1024T249 720Q248 548 302 418T463 215T732 140Z" />
<glyph unicode="&#xd5;" horiz-adv-x="1464" d="M732 -30Q517 -30 367 65T139 329T60 720Q60 942 138 1111T367 1375T732 1470Q948 1470 1098 1375T1326 1111T1404 720Q1404 498 1326 329T1098 65T732 -30ZM732 140Q893 139 1000 212T1161 417T1215 720Q1215 893
1162 1023T1001 1226T732 1300Q571 1301 465 1228T304 1024T249 720Q248 548 302 418T463 215T732 140ZM902 1608Q858 1608 817 1626T738 1669T666 1711T602 1730Q566 1730 555 1699T555 1628H435Q411 1728 452 1797T590 1867Q635 1867 676 1849T755 1806T828 1764T891
1745Q925 1745 938 1776T938 1849H1058Q1083 1751 1042 1680T902 1608Z" />
<glyph unicode="&#xd6;" horiz-adv-x="1464" d="M838 1636V1816H1018V1636H838ZM446 1636V1816H626V1636H446ZM732 -30Q517 -30 367 65T139 329T60 720Q60 942 138 1111T367 1375T732 1470Q948 1470 1098 1375T1326 1111T1404 720Q1404 498 1326 329T1098 65T732
-30ZM732 140Q893 139 1000 212T1161 417T1215 720Q1215 893 1162 1023T1001 1226T732 1300Q571 1301 465 1228T304 1024T249 720Q248 548 302 418T463 215T732 140Z" />
<glyph unicode="&#xd7;" horiz-adv-x="988" d="M765 346L494 616L224 346L120 450L391 720L121 990L225 1094L494 824L764 1094L868 990L598 720L869 450L765 346Z" />
<glyph unicode="&#xd8;" horiz-adv-x="1464" d="M179 -26L52 88L231 285L259 312L1103 1237L1119 1258L1305 1463L1432 1349L1230 1126L1209 1109L365 182L345 156L179 -26ZM732 -30Q517 -30 367 65T139 329T60 720Q60 942 138 1111T367 1375T732 1470Q948 1470
1098 1375T1326 1111T1404 720Q1404 498 1326 329T1098 65T732 -30ZM732 140Q893 139 1000 212T1161 417T1215 720Q1215 893 1162 1023T1001 1226T732 1300Q571 1301 465 1228T304 1024T249 720Q248 548 302 418T463 215T732 140Z" />
<glyph unicode="&#xd9;" horiz-adv-x="1416" d="M642 1590L566 1830H744L820 1590H642ZM708 -30Q541 -30 413 39T213 232T140 525V1439L320 1440V540Q320 438 354 363T446 237T571 163T708 138Q777 138 846 163T971 237T1062 363T1096 540V1440H1276V525Q1276
358 1204 233T1003 39T708 -30Z" />
<glyph unicode="&#xda;" horiz-adv-x="1416" d="M782 1590H604L680 1830H858L782 1590ZM708 -30Q541 -30 413 39T213 232T140 525V1439L320 1440V540Q320 438 354 363T446 237T571 163T708 138Q777 138 846 163T971 237T1062 363T1096 540V1440H1276V525Q1276
358 1204 233T1003 39T708 -30Z" />
<glyph unicode="&#xdb;" horiz-adv-x="1416" d="M476 1572L405 1690L708 1875L1011 1690L940 1572L708 1714L476 1572ZM708 -30Q541 -30 413 39T213 232T140 525V1439L320 1440V540Q320 438 354 363T446 237T571 163T708 138Q777 138 846 163T971 237T1062 363T1096
540V1440H1276V525Q1276 358 1204 233T1003 39T708 -30Z" />
<glyph unicode="&#xdc;" horiz-adv-x="1416" d="M814 1636V1816H994V1636H814ZM422 1636V1816H602V1636H422ZM708 -30Q541 -30 413 39T213 232T140 525V1439L320 1440V540Q320 438 354 363T446 237T571 163T708 138Q777 138 846 163T971 237T1062 363T1096 540V1440H1276V525Q1276
358 1204 233T1003 39T708 -30Z" />
<glyph unicode="&#xdd;" horiz-adv-x="1149" d="M646 1590H468L544 1830H722L646 1590ZM485 0V599L0 1440H207L575 803L942 1440H1149L665 599V0H485Z" />
<glyph unicode="&#xde;" horiz-adv-x="1213" d="M140 0V1440H320V1174H696Q773 1174 846 1148Q902 1130 951 1097T1037 1017Q1092 957 1122 879T1153 720Q1154 642 1126 568T1048 434Q988 358 894 313T696 267H320V0H140ZM320 436H695Q753 436 810 464T907 542Q937
580 954 626T970 720Q969 775 949 826T891 916Q855 955 802 979T695 1004H320V436Z" />
<glyph unicode="&#xdf;" horiz-adv-x="1221" d="M646 -29Q591 -29 547 -23T462 0V175Q499 162 538 155T626 147Q758 147 839 216T920 417Q920 547 821 615T559 686V846Q626 853 680 880T765 955T796 1076Q796 1183 729 1242T559 1301Q489 1301 431 1271T345 1172Q333
1141 328 1100T322 1014V0H139V1062Q139 1109 144 1149T162 1222Q192 1307 249 1362T386 1443T558 1470Q679 1470 774 1422T923 1286T978 1078Q978 983 939 907T822 791Q871 779 920 749T1010 670T1076 558T1101 415Q1101 212 985 92T646 -29Z" />
<glyph unicode="&#xe0;" horiz-adv-x="1125" d="M492 1230L416 1470H594L670 1230H492ZM447 -30Q326 -30 245 14T122 132T80 292Q80 377 112 439T204 543T345 609Q422 630 517 645T711 674T894 699L830 662Q833 806 773 875T564 944Q466 944 393 900T289 755L120
806Q159 948 271 1029T566 1110Q713 1110 818 1058T970 899Q993 849 999 791T1005 668V0H847V259L884 235Q823 104 714 37T447 -30ZM474 119Q570 119 640 153T754 244T810 368Q825 418 826 479T828 574L890 547Q803 535 719 524T560 501T425 471Q381 457 343 435T281
379T257 293Q257 249 279 209T349 144T474 119Z" />
<glyph unicode="&#xe1;" horiz-adv-x="1125" d="M663 1230H485L561 1470H739L663 1230ZM447 -30Q326 -30 245 14T122 132T80 292Q80 377 112 439T204 543T345 609Q422 630 517 645T711 674T894 699L830 662Q833 806 773 875T564 944Q466 944 393 900T289 755L120
806Q159 948 271 1029T566 1110Q713 1110 818 1058T970 899Q993 849 999 791T1005 668V0H847V259L884 235Q823 104 714 37T447 -30ZM474 119Q570 119 640 153T754 244T810 368Q825 418 826 479T828 574L890 547Q803 535 719 524T560 501T425 471Q381 457 343 435T281
379T257 293Q257 249 279 209T349 144T474 119Z" />
<glyph unicode="&#xe2;" horiz-adv-x="1125" d="M347 1212L276 1330L579 1515L882 1330L811 1212L579 1354L347 1212ZM447 -30Q326 -30 245 14T122 132T80 292Q80 377 112 439T204 543T345 609Q422 630 517 645T711 674T894 699L830 662Q833 806 773 875T564 944Q466
944 393 900T289 755L120 806Q159 948 271 1029T566 1110Q713 1110 818 1058T970 899Q993 849 999 791T1005 668V0H847V259L884 235Q823 104 714 37T447 -30ZM474 119Q570 119 640 153T754 244T810 368Q825 418 826 479T828 574L890 547Q803 535 719 524T560 501T425
471Q381 457 343 435T281 379T257 293Q257 249 279 209T349 144T474 119Z" />
<glyph unicode="&#xe3;" horiz-adv-x="1125" d="M746 1248Q702 1248 661 1266T582 1309T510 1351T446 1370Q410 1370 399 1339T399 1268H279Q255 1368 296 1437T434 1507Q479 1507 520 1489T599 1446T672 1404T735 1385Q769 1385 782 1416T782 1489H902Q927 1391
886 1320T746 1248ZM447 -30Q326 -30 245 14T122 132T80 292Q80 377 112 439T204 543T345 609Q422 630 517 645T711 674T894 699L830 662Q833 806 773 875T564 944Q466 944 393 900T289 755L120 806Q159 948 271 1029T566 1110Q713 1110 818 1058T970 899Q993 849
999 791T1005 668V0H847V259L884 235Q823 104 714 37T447 -30ZM474 119Q570 119 640 153T754 244T810 368Q825 418 826 479T828 574L890 547Q803 535 719 524T560 501T425 471Q381 457 343 435T281 379T257 293Q257 249 279 209T349 144T474 119Z" />
<glyph unicode="&#xe4;" horiz-adv-x="1125" d="M690 1276V1456H870V1276H690ZM298 1276V1456H478V1276H298ZM447 -30Q326 -30 245 14T122 132T80 292Q80 377 112 439T204 543T345 609Q422 630 517 645T711 674T894 699L830 662Q833 806 773 875T564 944Q466 944
393 900T289 755L120 806Q159 948 271 1029T566 1110Q713 1110 818 1058T970 899Q993 849 999 791T1005 668V0H847V259L884 235Q823 104 714 37T447 -30ZM474 119Q570 119 640 153T754 244T810 368Q825 418 826 479T828 574L890 547Q803 535 719 524T560 501T425
471Q381 457 343 435T281 379T257 293Q257 249 279 209T349 144T474 119Z" />
<glyph unicode="&#xe5;" horiz-adv-x="1125" d="M574 1195Q511 1195 458 1226T374 1310T342 1427Q342 1491 373 1543T458 1627T574 1659Q639 1659 691 1628T775 1544T806 1427Q806 1363 775 1311T692 1227T574 1195ZM574 1307Q625 1307 659 1342T694 1427Q694
1477 660 1512T574 1547Q525 1547 490 1512T454 1427Q454 1378 489 1343T574 1307ZM447 -30Q326 -30 245 14T122 132T80 292Q80 377 112 439T204 543T345 609Q422 630 517 645T711 674T894 699L830 662Q833 806 773 875T564 944Q466 944 393 900T289 755L120 806Q159
948 271 1029T566 1110Q713 1110 818 1058T970 899Q993 849 999 791T1005 668V0H847V259L884 235Q823 104 714 37T447 -30ZM474 119Q570 119 640 153T754 244T810 368Q825 418 826 479T828 574L890 547Q803 535 719 524T560 501T425 471Q381 457 343 435T281 379T257
293Q257 249 279 209T349 144T474 119Z" />
<glyph unicode="&#xe6;" horiz-adv-x="1880" d="M1335 -30Q1179 -30 1067 43T895 243T835 534Q835 706 894 836T1065 1038T1329 1110Q1490 1110 1596 1032T1754 813T1798 490H1628V554Q1625 739 1558 844T1327 950Q1217 950 1148 898T1046 753T1013 540Q1013 358
1092 249T1327 139Q1424 139 1500 186T1619 329L1780 270Q1741 174 1674 107T1519 5T1335 -30ZM474 118Q582 118 666 168T786 290Q808 333 817 382T828 476T829 546L880 509L591 495Q548 493 491 487T381 461T293 402T257 295Q257 212 315 165T474 118ZM458 -30Q279
-30 180 58T80 291Q80 380 114 439T205 534T326 588T453 614T563 625L860 641L827 609Q836 724 808 798T719 908T567 944Q471 944 394 902T286 762L120 813Q149 904 212 970T367 1073T570 1110Q740 1110 844 1038T984 837Q999 789 1002 743T1005 660L923 256Q877
149 805 87T644 -3T458 -30ZM956 490V637H1711V490H956Z" />
<glyph unicode="&#xe7;" horiz-adv-x="1122" d="M551 -481Q514 -481 482 -472T420 -448L463 -333Q508 -349 536 -349Q572 -349 591 -327T611 -279Q611 -235 571 -216T479 -181L552 24L673 25L626 -107Q681 -132 714 -175T747 -284Q747 -369 689 -425T551 -481ZM595
-30Q431 -30 317 43T142 246T80 540Q82 709 143 837T320 1038T597 1110Q768 1110 891 1026T1057 796L881 743Q847 837 771 889T595 941Q484 941 412 890T305 748T269 540Q271 360 352 250T595 139Q701 139 771 187T877 328L1057 281Q1001 130 882 50T595 -30Z"
/>
<glyph unicode="&#xe8;" horiz-adv-x="1181" d="M524 1230L448 1470H626L702 1230H524ZM608 -30Q449 -30 331 40T146 237T80 533Q80 710 145 839T326 1039T600 1110Q763 1110 877 1035T1049 821T1099 490H919V554Q916 753 838 851T606 950Q441 950 355 844T269
540Q269 349 355 244T600 139Q707 139 786 188T910 329L1081 270Q1018 127 892 49T608 -30ZM209 490V633H1007V490H209Z" />
<glyph unicode="&#xe9;" horiz-adv-x="1181" d="M708 1230H530L606 1470H784L708 1230ZM608 -30Q449 -30 331 40T146 237T80 533Q80 710 145 839T326 1039T600 1110Q763 1110 877 1035T1049 821T1099 490H919V554Q916 753 838 851T606 950Q441 950 355 844T269
540Q269 349 355 244T600 139Q707 139 786 188T910 329L1081 270Q1018 127 892 49T608 -30ZM209 490V633H1007V490H209Z" />
<glyph unicode="&#xea;" horiz-adv-x="1181" d="M368 1212L297 1330L600 1515L903 1330L832 1212L600 1354L368 1212ZM608 -30Q449 -30 331 40T146 237T80 533Q80 710 145 839T326 1039T600 1110Q763 1110 877 1035T1049 821T1099 490H919V554Q916 753 838 851T606
950Q441 950 355 844T269 540Q269 349 355 244T600 139Q707 139 786 188T910 329L1081 270Q1018 127 892 49T608 -30ZM209 490V633H1007V490H209Z" />
<glyph unicode="&#xeb;" horiz-adv-x="1181" d="M706 1276V1456H886V1276H706ZM314 1276V1456H494V1276H314ZM608 -30Q449 -30 331 40T146 237T80 533Q80 710 145 839T326 1039T600 1110Q763 1110 877 1035T1049 821T1099 490H919V554Q916 753 838 851T606 950Q441
950 355 844T269 540Q269 349 355 244T600 139Q707 139 786 188T910 329L1081 270Q1018 127 892 49T608 -30ZM209 490V633H1007V490H209Z" />
<glyph unicode="&#xec;" horiz-adv-x="498" d="M160 1230L84 1470H262L338 1230H160ZM160 0V1080H338V0H160Z" />
<glyph unicode="&#xed;" horiz-adv-x="498" d="M338 1230H160L236 1470H414L338 1230ZM160 0V1080H338V0H160Z" />
<glyph unicode="&#xee;" horiz-adv-x="498" d="M27 1212L-44 1330L259 1515L562 1330L491 1212L259 1354L27 1212ZM160 0V1080H338V0H160Z" />
<glyph unicode="&#xef;" horiz-adv-x="498" d="M355 1276V1456H535V1276H355ZM-37 1276V1456H143V1276H-37ZM160 0V1080H338V0H160Z" />
<glyph unicode="&#xf0;" horiz-adv-x="1174" d="M588 -30Q433 -31 320 36T144 223T80 503Q81 664 144 784T320 971T588 1037Q680 1038 763 1007T918 908Q903 1031 837 1127T667 1281T431 1349L457 1493Q622 1486 746 1418T948 1224Q1004 1143 1036 1046T1081 819T1094
508Q1094 344 1033 223T858 35T588 -30ZM588 132Q746 132 829 232T913 505Q913 679 828 778T588 875Q430 877 346 778T261 504Q261 328 346 230T588 132ZM623 1108L516 1200L820 1565L927 1473L623 1108Z" />
<glyph unicode="&#xf1;" horiz-adv-x="1209" d="M761 1248Q717 1248 676 1266T597 1309T525 1351T461 1370Q425 1370 414 1339T414 1268H294Q270 1368 311 1437T449 1507Q494 1507 535 1489T614 1446T687 1404T750 1385Q784 1385 797 1416T797 1489H917Q942 1391
901 1320T761 1248ZM909 0V541Q909 618 896 689T849 816T759 906T616 939Q549 939 495 917T401 848T341 733T319 569L202 605Q202 762 258 874T417 1047T659 1108Q764 1108 838 1075T961 988T1038 866T1077 729T1089 597V0H909ZM139 0V1080H299V791H319V0H139Z"
/>
<glyph unicode="&#xf2;" horiz-adv-x="1201" d="M505 1230L429 1470H607L683 1230H505ZM600 -30Q439 -30 323 43T143 245T80 541Q80 711 144 839T325 1038T600 1110Q762 1110 879 1038T1058 837T1121 541Q1121 372 1058 244T878 43T600 -30ZM600 139Q768 139 850
251T932 541Q932 724 849 832T600 941Q487 941 414 890T305 749T269 541Q269 359 353 249T600 139Z" />
<glyph unicode="&#xf3;" horiz-adv-x="1201" d="M687 1230H509L585 1470H763L687 1230ZM600 -30Q439 -30 323 43T143 245T80 541Q80 711 144 839T325 1038T600 1110Q762 1110 879 1038T1058 837T1121 541Q1121 372 1058 244T878 43T600 -30ZM600 139Q768 139 850
251T932 541Q932 724 849 832T600 941Q487 941 414 890T305 749T269 541Q269 359 353 249T600 139Z" />
<glyph unicode="&#xf4;" horiz-adv-x="1201" d="M369 1212L298 1330L601 1515L904 1330L833 1212L601 1354L369 1212ZM600 -30Q439 -30 323 43T143 245T80 541Q80 711 144 839T325 1038T600 1110Q762 1110 879 1038T1058 837T1121 541Q1121 372 1058 244T878 43T600
-30ZM600 139Q768 139 850 251T932 541Q932 724 849 832T600 941Q487 941 414 890T305 749T269 541Q269 359 353 249T600 139Z" />
<glyph unicode="&#xf5;" horiz-adv-x="1201" d="M757 1248Q713 1248 672 1266T593 1309T521 1351T457 1370Q421 1370 410 1339T410 1268H290Q266 1368 307 1437T445 1507Q490 1507 531 1489T610 1446T683 1404T746 1385Q780 1385 793 1416T793 1489H913Q938 1391
897 1320T757 1248ZM600 -30Q439 -30 323 43T143 245T80 541Q80 711 144 839T325 1038T600 1110Q762 1110 879 1038T1058 837T1121 541Q1121 372 1058 244T878 43T600 -30ZM600 139Q768 139 850 251T932 541Q932 724 849 832T600 941Q487 941 414 890T305 749T269
541Q269 359 353 249T600 139Z" />
<glyph unicode="&#xf6;" horiz-adv-x="1201" d="M707 1276V1456H887V1276H707ZM315 1276V1456H495V1276H315ZM600 -30Q439 -30 323 43T143 244T80 541Q80 711 144 839T325 1038T600 1110Q762 1110 879 1038T1058 837T1121 541Q1121 372 1058 244T878 43T600 -30ZM600
139Q768 139 850 251T932 541Q932 724 849 832T600 941Q487 941 414 890T305 749T269 541Q269 359 353 249T600 139Z" />
<glyph unicode="&#xf7;" horiz-adv-x="1080" d="M120 647V794H960V647H120ZM457 915V1111H653V915H457ZM457 343V539H653V343H457Z" />
<glyph unicode="&#xf8;" horiz-adv-x="1201" d="M164 -15L44 105L217 278L269 309L863 901L886 945L1037 1095L1157 975L990 810L946 786L364 204L328 149L164 -15ZM600 -30Q439 -30 323 43T143 245T80 541Q80 711 144 839T325 1038T600 1110Q762 1110 879 1038T1058
837T1121 541Q1121 372 1058 244T878 43T600 -30ZM600 139Q768 139 850 251T932 541Q932 724 849 832T600 941Q487 941 414 890T305 749T269 541Q269 359 353 249T600 139Z" />
<glyph unicode="&#xf9;" horiz-adv-x="1209" d="M521 1230L445 1470H623L699 1230H521ZM550 -28Q446 -28 372 5T248 93T171 215T132 352T120 483V1080H300V539Q300 463 314 392T361 264T451 174T593 141Q660 141 715 164T809 232T869 348T890 511L1007 475Q1007
319 951 206T792 33T550 -28ZM910 0V289H890V1080H1069V0H910Z" />
<glyph unicode="&#xfa;" horiz-adv-x="1209" d="M673 1230H495L571 1470H749L673 1230ZM550 -28Q446 -28 372 5T248 93T171 215T132 352T120 483V1080H300V539Q300 463 314 392T361 264T451 174T593 141Q660 141 715 164T809 232T869 348T890 511L1007 475Q1007
319 951 206T792 33T550 -28ZM910 0V289H890V1080H1069V0H910Z" />
<glyph unicode="&#xfb;" horiz-adv-x="1209" d="M362 1212L291 1330L594 1515L897 1330L826 1212L594 1354L362 1212ZM550 -28Q446 -28 372 5T248 93T171 215T132 352T120 483V1080H300V539Q300 463 314 392T361 264T451 174T593 141Q660 141 715 164T809 232T869
348T890 511L1007 475Q1007 319 951 206T792 33T550 -28ZM910 0V289H890V1080H1069V0H910Z" />
<glyph unicode="&#xfc;" horiz-adv-x="1209" d="M700 1276V1456H880V1276H700ZM308 1276V1456H488V1276H308ZM550 -28Q446 -28 372 5T248 93T171 215T132 352T120 483V1080H300V539Q300 463 314 392T361 264T451 174T593 141Q660 141 715 164T809 232T869 348T890
511L1007 475Q1007 319 951 206T792 33T550 -28ZM910 0V289H890V1080H1069V0H910Z" />
<glyph unicode="&#xfd;" horiz-adv-x="1076" d="M628 1230H450L526 1470H704L628 1230ZM290 -480L499 88L502 -80L30 1080H217L587 147H523L870 1080H1051L463 -480H290Z" />
<glyph unicode="&#xfe;" horiz-adv-x="1200" d="M140 823V1440H319V823H140ZM636 -30Q484 -30 380 45T223 250T169 541Q169 704 222 833T380 1036T637 1110Q787 1110 895 1036T1062 832T1120 541Q1120 379 1062 250T896 46T636 -30ZM139 -480V1080H298V285H318V-480H139ZM614
133Q721 133 791 187T896 333T931 541Q931 655 897 747T791 893T609 947Q504 947 435 896T332 753T298 541Q298 423 331 331T435 186T614 133Z" />
<glyph unicode="&#xff;" horiz-adv-x="1076" d="M655 1276V1456H835V1276H655ZM263 1276V1456H443V1276H263ZM290 -480L499 88L502 -80L30 1080H217L587 147H523L870 1080H1051L463 -480H290Z" />
<glyph unicode="&#x2013;" horiz-adv-x="1080" d="M120 557V704H960V557H120Z" />
<glyph unicode="&#x2014;" horiz-adv-x="1560" d="M120 557V704H1440V557H120Z" />
<glyph unicode="&#x2018;" horiz-adv-x="485" d="M335 990L324 1073Q282 1070 261 1089T234 1141T232 1214H335V1440H139V1184Q139 1079 190 1026T335 990Z" />
<glyph unicode="&#x2019;" horiz-adv-x="485" d="M150 990L161 1073Q203 1070 224 1089T251 1141T253 1214H150V1440H346V1184Q346 1079 295 1026T150 990Z" />
<glyph unicode="&#x201a;" horiz-adv-x="556" d="M120 -224L131 -141Q173 -144 194 -125T221 -73T223 0H120V226H316V-30Q316 -135 265 -188T120 -224Z" />
<glyph unicode="&#x201c;" horiz-adv-x="797" d="M637 1448L626 1365Q584 1368 563 1349T536 1297T534 1224H637V998H441V1254Q441 1359 492 1412T637 1448ZM356 1448L345 1365Q303 1368 282 1349T255 1297T253 1224H356V998H160V1254Q160 1359 211 1412T356 1448Z" />
<glyph unicode="&#x201d;" horiz-adv-x="797" d="M160 1000L171 1083Q213 1080 234 1099T261 1151T263 1224H160V1450H356V1194Q356 1089 305 1036T160 1000ZM441 1000L452 1083Q494 1080 515 1099T542 1151T544 1224H441V1450H637V1194Q637 1089 586 1036T441 1000Z" />
<glyph unicode="&#x201e;" horiz-adv-x="797" d="M160 -224L171 -141Q213 -144 234 -125T261 -73T263 0H160V226H356V-30Q356 -135 305 -188T160 -224ZM441 -224L452 -141Q494 -144 515 -125T542 -73T544 0H441V226H637V-30Q637 -135 586 -188T441 -224Z" />
<glyph unicode="&#x2022;" horiz-adv-x="1340" d="M675 380Q604 380 547 413T455 502T420 630Q420 701 454 758T546 847T675 880Q741 880 797 848T886 758T920 630Q920 559 887 503T797 413T675 380Z" />
<glyph unicode="&#x2039;" horiz-adv-x="1244" d="M753 157L280 630L753 1103L865 992L497 630L865 268L753 157Z" />
<glyph unicode="&#x203a;" horiz-adv-x="1244" d="M491 157L964 630L491 1103L379 992L747 630L379 268L491 157Z" />
</font>
</defs>
</svg>
