<?xml version="1.0" encoding="utf-8"?>
<!-- Generator: Adobe Illustrator 22.0.1, SVG Export Plug-In . SVG Version: 6.00 Build 0)  -->
<svg version="1.1" id="Capa_1" xmlns="http://www.w3.org/2000/svg"  x="0px" y="0px"
	 viewBox="0 0 85.8 32" enable-background="new 0 0 85.8 32" xml:space="preserve">
<path fill="#2F3542" d="M80,30H6c-2.2,0-4-1.8-4-4V6c0-2.2,1.8-4,4-4h74c2.2,0,4,1.8,4,4v20C84,28.2,82.2,30,80,30z"/>
<g enable-background="new    ">
	<path opacity="0.3" fill="#2F3542" d="M80,29H6c-2.2,0-4-1.8-4-4v1c0,2.2,1.8,4,4,4h74c2.2,0,4-1.8,4-4v-1C84,27.2,82.2,29,80,29z"
		/>
</g>
<path fill="#7BED9F" d="M60.9,24.9h14.6v-2.1H60.9V24.9z M75.5,13.4h-4.2V7.1H65v6.3h-4.2l7.3,7.3L75.5,13.4z"/>
<path fill="#FFFFFF" d="M9.1572,14.356V8.3442c0-0.0962,0.0479-0.144,0.1436-0.144h2.1602c0.4258,0,0.8013,0.0747,1.125,0.2246
	c0.3242,0.1504,0.5747,0.3647,0.7515,0.6436c0.1772,0.2793,0.2656,0.6045,0.2656,0.9766v2.6099
	c0,0.3721-0.0884,0.6978-0.2656,0.9766c-0.1768,0.2793-0.4272,0.4937-0.7515,0.6436c-0.3237,0.1499-0.6992,0.2251-1.125,0.2251
	H9.3008C9.2051,14.5,9.1572,14.4521,9.1572,14.356z M10.2549,13.6001h1.251c0.3179,0,0.5718-0.1006,0.7607-0.3018
	c0.189-0.2007,0.2861-0.4692,0.2925-0.8052v-2.2773c0-0.3418-0.0962-0.6133-0.2881-0.8145
	c-0.1919-0.2007-0.4502-0.3013-0.7739-0.3013h-1.2422c-0.0356,0-0.0537,0.0181-0.0537,0.0537v4.3921
	C10.2012,13.582,10.2192,13.6001,10.2549,13.6001z M15.646,14.3154c-0.3477-0.1831-0.6162-0.4424-0.8052-0.7783
	s-0.2837-0.7231-0.2837-1.1611v-2.0518c0-0.4321,0.0962-0.8149,0.2881-1.1479s0.4604-0.5908,0.8057-0.7739
	c0.3447-0.1826,0.7422-0.2744,1.1924-0.2744c0.4561,0,0.8564,0.0918,1.2017,0.2744c0.3447,0.1831,0.6133,0.4409,0.8052,0.7739
	s0.2881,0.7158,0.2881,1.1479v2.0518c0,0.438-0.0962,0.8252-0.2881,1.1611s-0.4604,0.5952-0.8052,0.7783
	c-0.3452,0.1831-0.7456,0.2744-1.2017,0.2744C16.3931,14.5898,15.9941,14.4985,15.646,14.3154z M17.7524,13.3389
	c0.2275-0.2339,0.3418-0.543,0.3418-0.9268v-2.0972c0-0.3901-0.1143-0.7021-0.3418-0.936
	c-0.2285-0.2339-0.5313-0.3511-0.9092-0.3511c-0.3721,0-0.6719,0.1172-0.8999,0.3511s-0.3423,0.5459-0.3423,0.936v2.0972
	c0,0.3838,0.1143,0.6929,0.3423,0.9268c0.228,0.2344,0.5278,0.3511,0.8999,0.3511C17.2212,13.6899,17.5239,13.5732,17.7524,13.3389z
	 M21.2529,14.374l-1.6196-6.0122C19.627,8.3501,19.624,8.335,19.624,8.3169c0-0.0361,0.0122-0.0645,0.0361-0.0854
	s0.0566-0.0313,0.0991-0.0313h0.8096c0.084,0,0.1353,0.042,0.1533,0.126l1.0171,4.0498c0.0059,0.0239,0.0176,0.0361,0.0356,0.0361
	s0.0303-0.0122,0.0361-0.0361l0.9629-4.0498c0.0181-0.084,0.0688-0.126,0.1533-0.126h0.8096c0.0903,0,0.144,0.042,0.1621,0.126
	l1.0264,4.0498c0.0059,0.0239,0.0176,0.0361,0.0356,0.0361s0.0303-0.0122,0.0361-0.0361l0.999-4.0498
	c0.0181-0.084,0.0688-0.126,0.1528-0.126h0.7739c0.0483,0,0.0825,0.0146,0.1035,0.0449c0.021,0.0298,0.0259,0.0688,0.0137,0.1167
	l-1.5298,6.0122c-0.0181,0.084-0.0723,0.126-0.1621,0.126h-0.7832c-0.084,0-0.1348-0.042-0.1528-0.126l-1.0439-4.2393
	c-0.0063-0.0234-0.0181-0.0356-0.0361-0.0356s-0.0303,0.0122-0.0361,0.0356l-0.999,4.2393C22.2793,14.458,22.228,14.5,22.144,14.5
	h-0.729C21.3252,14.5,21.271,14.458,21.2529,14.374z M27.8145,14.356V8.3442c0-0.0962,0.0479-0.144,0.1436-0.144h0.7202
	c0.084,0,0.144,0.0327,0.1802,0.0986l2.52,4.1221c0.0117,0.0239,0.0254,0.0332,0.0405,0.0273
	c0.0146-0.0063,0.0225-0.021,0.0225-0.0454V8.3442c0-0.0962,0.0479-0.144,0.144-0.144h0.7559c0.0957,0,0.144,0.0479,0.144,0.144
	v6.0117c0,0.0962-0.0483,0.144-0.144,0.144H31.603c-0.084,0-0.144-0.0327-0.1797-0.0991l-2.52-4.1489
	c-0.0122-0.0239-0.0259-0.0327-0.0405-0.0269c-0.0151,0.0059-0.0225,0.021-0.0225,0.0449l0.0088,4.0859
	c0,0.0962-0.0479,0.144-0.144,0.144H27.958C27.8623,14.5,27.8145,14.4521,27.8145,14.356z M33.79,14.356V8.3442
	c0-0.0962,0.0479-0.144,0.1436-0.144h0.7563c0.0957,0,0.144,0.0479,0.144,0.144v5.2017c0,0.0361,0.0181,0.0542,0.0537,0.0542h2.9702
	c0.0957,0,0.144,0.0479,0.144,0.144v0.6118c0,0.0962-0.0483,0.144-0.144,0.144h-3.9243C33.8379,14.5,33.79,14.4521,33.79,14.356z
	 M39.8105,14.3154c-0.3477-0.1831-0.6162-0.4424-0.8052-0.7783s-0.2837-0.7231-0.2837-1.1611v-2.0518
	c0-0.4321,0.0962-0.8149,0.2881-1.1479s0.4604-0.5908,0.8057-0.7739c0.3447-0.1826,0.7422-0.2744,1.1924-0.2744
	c0.4561,0,0.8564,0.0918,1.2017,0.2744c0.3447,0.1831,0.6133,0.4409,0.8052,0.7739s0.2881,0.7158,0.2881,1.1479v2.0518
	c0,0.438-0.0962,0.8252-0.2881,1.1611s-0.4604,0.5952-0.8052,0.7783c-0.3452,0.1831-0.7456,0.2744-1.2017,0.2744
	C40.5576,14.5898,40.1587,14.4985,39.8105,14.3154z M41.917,13.3389c0.2275-0.2339,0.3418-0.543,0.3418-0.9268v-2.0972
	c0-0.3901-0.1143-0.7021-0.3418-0.936c-0.2285-0.2339-0.5313-0.3511-0.9092-0.3511c-0.3721,0-0.6719,0.1172-0.8999,0.3511
	s-0.3423,0.5459-0.3423,0.936v2.0972c0,0.3838,0.1143,0.6929,0.3423,0.9268c0.228,0.2344,0.5278,0.3511,0.8999,0.3511
	C41.3857,13.6899,41.6885,13.5732,41.917,13.3389z M48.0361,14.3828l-0.2783-0.9268c-0.0059-0.0298-0.0273-0.0449-0.0635-0.0449
	h-2.3584c-0.0352,0-0.0566,0.0151-0.0625,0.0449l-0.2793,0.9268C44.9707,14.4609,44.916,14.5,44.832,14.5h-0.8184
	c-0.0483,0-0.0825-0.0151-0.1035-0.0449c-0.021-0.0303-0.0259-0.0688-0.0137-0.1172l1.9258-6.021
	c0.0244-0.0776,0.0781-0.1167,0.1621-0.1167h1.0537c0.083,0,0.1377,0.0391,0.1611,0.1167l1.9355,6.021
	c0.0059,0.0122,0.0088,0.0303,0.0088,0.0542c0,0.0718-0.042,0.1079-0.126,0.1079h-0.8193
	C48.1143,14.5,48.0605,14.4609,48.0361,14.3828z M45.5977,12.5918h1.8359c0.0361,0,0.0508-0.0205,0.0449-0.063l-0.9268-3.0596
	c-0.0068-0.0239-0.0166-0.0361-0.0322-0.0361c-0.0146,0-0.0273,0.0122-0.04,0.0361l-0.9268,3.0596
	C45.5469,12.5713,45.5615,12.5918,45.5977,12.5918z M50.0889,14.356V8.3442c0-0.0962,0.0479-0.144,0.1436-0.144h2.1602
	c0.4258,0,0.8008,0.0747,1.125,0.2246c0.3242,0.1504,0.5742,0.3647,0.752,0.6436c0.1768,0.2793,0.2646,0.6045,0.2646,0.9766v2.6099
	c0,0.3721-0.0879,0.6978-0.2646,0.9766c-0.1777,0.2793-0.4277,0.4937-0.752,0.6436S52.8184,14.5,52.3926,14.5h-2.1602
	C50.1367,14.5,50.0889,14.4521,50.0889,14.356z M51.1865,13.6001h1.251c0.3184,0,0.5713-0.1006,0.7607-0.3018
	c0.1885-0.2007,0.2861-0.4692,0.292-0.8052v-2.2773c0-0.3418-0.0957-0.6133-0.2871-0.8145
	c-0.1924-0.2007-0.4502-0.3013-0.7744-0.3013h-1.2422c-0.0361,0-0.0537,0.0181-0.0537,0.0537v4.3921
	C51.1328,13.582,51.1504,13.6001,51.1865,13.6001z M9.9805,25.1465c-0.3452-0.1494-0.6104-0.3613-0.7964-0.6348
	c-0.186-0.2725-0.2793-0.5889-0.2793-0.9492V23.374c0-0.0967,0.0483-0.1436,0.144-0.1436h0.7383c0.0957,0,0.144,0.0449,0.144,0.1348
	v0.1436c0,0.2764,0.1216,0.5049,0.3643,0.6885c0.2432,0.1836,0.5654,0.2744,0.9678,0.2744c0.3657,0,0.6416-0.0771,0.8276-0.2334
	s0.2793-0.3574,0.2793-0.6035c0-0.168-0.0513-0.3105-0.1533-0.4277s-0.2471-0.2227-0.4365-0.3193
	c-0.189-0.0957-0.4722-0.2158-0.8501-0.3604c-0.4263-0.1553-0.771-0.3027-1.0352-0.4404s-0.4844-0.3252-0.6616-0.5625
	c-0.1768-0.2373-0.2656-0.5322-0.2656-0.8867c0-0.5283,0.1924-0.9443,0.5762-1.251s0.897-0.459,1.5391-0.459
	c0.4502,0,0.8472,0.0781,1.1924,0.2344s0.6133,0.373,0.8057,0.6523c0.1919,0.2793,0.2881,0.6016,0.2881,0.9668v0.1172
	c0,0.0957-0.0483,0.1445-0.144,0.1445h-0.7383c-0.042,0-0.0762-0.0107-0.1035-0.0313c-0.0269-0.0215-0.0405-0.0469-0.0405-0.0771
	v-0.0986c0-0.2822-0.1152-0.5205-0.3462-0.7158c-0.231-0.1943-0.5508-0.292-0.9585-0.292c-0.3301,0-0.5864,0.0684-0.7695,0.207
	c-0.1831,0.1377-0.2744,0.332-0.2744,0.584c0,0.1807,0.0479,0.3281,0.144,0.4414c0.0957,0.1143,0.2397,0.2178,0.4316,0.3105
	c0.1919,0.0938,0.4893,0.2119,0.8911,0.3555c0.4258,0.1621,0.7666,0.3096,1.0215,0.4414s0.4741,0.3164,0.6572,0.5527
	c0.1826,0.2383,0.2744,0.5332,0.2744,0.8867c0,0.3486-0.0898,0.6563-0.27,0.9229s-0.438,0.4736-0.7739,0.6211
	c-0.3364,0.1475-0.7324,0.2197-1.188,0.2197C10.7261,25.3711,10.3257,25.2969,9.9805,25.1465z M18.2471,25.1826l-0.2788-0.9268
	c-0.0063-0.0293-0.0273-0.0449-0.063-0.0449h-2.3584c-0.0356,0-0.0571,0.0156-0.063,0.0449l-0.2788,0.9268
	c-0.0239,0.0781-0.0781,0.1172-0.1621,0.1172h-0.8188c-0.0483,0-0.0825-0.0146-0.1035-0.0449s-0.0259-0.0693-0.0137-0.1172
	l1.9263-6.0205C16.0571,19.0391,16.1108,19,16.1948,19h1.0532c0.084,0,0.1382,0.0391,0.1621,0.1172l1.9351,6.0205
	c0.0059,0.0127,0.0088,0.0303,0.0088,0.0537c0,0.0723-0.042,0.1084-0.126,0.1084h-0.8188
	C18.3252,25.2998,18.271,25.2607,18.2471,25.1826z M15.8081,23.3916h1.8359c0.0361,0,0.0508-0.0205,0.0449-0.0635l-0.9268-3.0586
	c-0.0063-0.0244-0.0166-0.0371-0.0317-0.0371s-0.0283,0.0127-0.0405,0.0371l-0.9268,3.0586
	C15.7568,23.3711,15.772,23.3916,15.8081,23.3916z M20.2993,25.1563v-6.0117c0-0.0967,0.0479-0.1445,0.1436-0.1445h0.7651
	c0.084,0,0.144,0.0332,0.1802,0.0986l1.4038,2.2686c0.0122,0.0176,0.0254,0.0273,0.0405,0.0273s0.0254-0.0098,0.0317-0.0273
	l1.4219-2.2686C24.3223,19.0332,24.3818,19,24.4663,19h0.7559c0.0957,0,0.144,0.0479,0.144,0.1445v6.0117
	c0,0.0957-0.0483,0.1436-0.144,0.1436h-0.7559c-0.0962,0-0.144-0.0479-0.144-0.1436v-4.2578c0-0.0234-0.0078-0.0391-0.0225-0.0449
	c-0.0151-0.0059-0.0288,0.0039-0.0405,0.0273l-1.0713,1.7549c-0.0361,0.0654-0.0957,0.0986-0.1797,0.0986h-0.3511
	c-0.0845,0-0.144-0.0332-0.1802-0.0986l-1.0708-1.7549c-0.0122-0.0234-0.0259-0.0332-0.0405-0.0273
	c-0.0151,0.0059-0.0225,0.0215-0.0225,0.0449v4.2578c0,0.0957-0.0483,0.1436-0.144,0.1436h-0.7563
	C20.3472,25.2998,20.2993,25.252,20.2993,25.1563z M30.127,19.2246c0.2881,0.1563,0.5112,0.377,0.6704,0.6621
	s0.2388,0.6133,0.2388,0.9844c0,0.3672-0.0811,0.6914-0.2432,0.9727c-0.1621,0.2822-0.3916,0.5-0.6885,0.6523
	c-0.2969,0.1533-0.6406,0.2295-1.0308,0.2295h-1.4307c-0.0361,0-0.0542,0.0186-0.0542,0.0537v2.377
	c0,0.0957-0.0479,0.1436-0.144,0.1436H26.689c-0.0962,0-0.144-0.0479-0.144-0.1436v-6.0215c0-0.0957,0.0479-0.1445,0.144-0.1445
	h2.439C29.5059,18.9902,29.8389,19.0684,30.127,19.2246z M29.7129,21.6094c0.186-0.1797,0.2788-0.416,0.2788-0.7109
	c0-0.2998-0.0928-0.543-0.2788-0.7285s-0.4321-0.2793-0.7378-0.2793h-1.332c-0.0361,0-0.0542,0.0176-0.0542,0.0547v1.8809
	c0,0.0352,0.0181,0.0537,0.0542,0.0537h1.332C29.2808,21.8799,29.5269,21.79,29.7129,21.6094z M31.9541,25.1563v-6.0117
	c0-0.0967,0.0479-0.1445,0.1436-0.1445h0.7563c0.0957,0,0.144,0.0479,0.144,0.1445v5.2012c0,0.0361,0.0181,0.0547,0.0537,0.0547
	h2.9702c0.0957,0,0.144,0.0469,0.144,0.1436v0.6123c0,0.0957-0.0483,0.1436-0.144,0.1436h-3.9243
	C32.002,25.2998,31.9541,25.252,31.9541,25.1563z M41.2148,19.9004h-3.0239c-0.0356,0-0.0537,0.0176-0.0537,0.0527v1.666
	c0,0.0352,0.0181,0.0537,0.0537,0.0537h2.0161c0.0957,0,0.144,0.0479,0.144,0.1436v0.6123c0,0.0967-0.0483,0.1436-0.144,0.1436
	h-2.0161c-0.0356,0-0.0537,0.0186-0.0537,0.0547v1.7188c0,0.0361,0.0181,0.0547,0.0537,0.0547h3.0239
	c0.0962,0,0.144,0.0469,0.144,0.1436v0.6123c0,0.0957-0.0479,0.1436-0.144,0.1436h-3.978c-0.0957,0-0.1436-0.0479-0.1436-0.1436
	v-6.0117c0-0.0967,0.0479-0.1445,0.1436-0.1445h3.978c0.0962,0,0.144,0.0479,0.144,0.1445v0.6113
	C41.3589,19.8516,41.311,19.9004,41.2148,19.9004z"/>
</svg>
