<?xml version="1.0" encoding="utf-8"?>
<!-- Generator: Adobe Illustrator 22.0.1, SVG Export Plug-In . SVG Version: 6.00 Build 0)  -->
<svg version="1.1" id="Capa_1" xmlns="http://www.w3.org/2000/svg"  x="0px" y="0px"
	 viewBox="0 0 85.8 32" enable-background="new 0 0 85.8 32" xml:space="preserve">
<path fill="#2F3542" d="M80,30H6c-2.2,0-4-1.8-4-4V6c0-2.2,1.8-4,4-4h74c2.2,0,4,1.8,4,4v20C84,28.2,82.2,30,80,30z"/>
<g enable-background="new    ">
	<path opacity="0.3" fill="#2F3542" d="M80,29H6c-2.2,0-4-1.8-4-4v1c0,2.2,1.8,4,4,4h74c2.2,0,4-1.8,4-4v-1C84,27.2,82.2,29,80,29z"
		/>
</g>
<path fill="#70A1FF" d="M75.1,16v7.1c0,1-0.8,1.8-1.8,1.8H59.1c-1,0-1.8-0.8-1.8-1.8V16c-0.5,0-0.9-0.4-0.9-0.9v-2.7
	c0-1,0.8-1.8,1.8-1.8H61c-0.1-0.3-0.2-0.6-0.2-0.9C60.8,8.2,62,7,63.5,7c0.9,0,1.7,0.4,2.2,1.1l0,0l0.5,0.7l0.5-0.7l0,0
	C67.2,7.4,68,7,68.9,7c1.5,0,2.7,1.2,2.7,2.7c0,0.3-0.1,0.6-0.2,0.9h2.8c1,0,1.8,0.8,1.8,1.8v2.7C76,15.6,75.6,16,75.1,16
	 M59.1,23.1h6.2V16h-6.2L59.1,23.1 M73.3,23.1V16h-6.2v7.1H73.3 M63.6,8.9c-0.5,0-0.9,0.4-0.9,0.9s0.4,0.9,0.9,0.9s0.9-0.4,0.9-0.9
	C64.5,9.3,64.1,8.9,63.6,8.9 M68.9,8.9c-0.5,0-0.9,0.4-0.9,0.9s0.4,0.9,0.9,0.9s0.9-0.4,0.9-0.9C69.8,9.3,69.4,8.9,68.9,8.9
	 M58.2,12.5v1.8h7.1v-1.8H58.2 M67.1,12.5v1.8h7.1v-1.8H67.1z"/>
<path fill="#FFFFFF" d="M10.8174,14.2471c-0.3452-0.1499-0.6104-0.3618-0.7964-0.6348s-0.2793-0.5894-0.2793-0.9492v-0.189
	c0-0.0962,0.0483-0.144,0.144-0.144h0.7383c0.0957,0,0.144,0.0449,0.144,0.1348v0.144c0,0.2759,0.1216,0.5054,0.3643,0.6885
	c0.2432,0.1831,0.5654,0.2744,0.9678,0.2744c0.3657,0,0.6416-0.0776,0.8276-0.2339c0.186-0.1558,0.2793-0.3569,0.2793-0.603
	c0-0.168-0.0513-0.3105-0.1533-0.4272c-0.1021-0.1172-0.2471-0.2236-0.4365-0.3198c-0.189-0.0957-0.4722-0.2158-0.8501-0.3599
	c-0.4263-0.1558-0.771-0.3027-1.0352-0.4409s-0.4844-0.3257-0.6616-0.5625c-0.1768-0.2373-0.2656-0.5327-0.2656-0.8867
	c0-0.5278,0.1924-0.9448,0.5762-1.251s0.897-0.459,1.5391-0.459c0.4502,0,0.8472,0.0781,1.1924,0.2339
	c0.3452,0.1563,0.6133,0.3735,0.8057,0.6528c0.1919,0.2788,0.2881,0.6016,0.2881,0.9673V9.999c0,0.0957-0.0483,0.144-0.144,0.144
	h-0.7383c-0.042,0-0.0762-0.0107-0.1035-0.0317c-0.0269-0.021-0.0405-0.0464-0.0405-0.0767V9.936
	c0-0.2822-0.1152-0.5205-0.3462-0.7158c-0.231-0.1948-0.5508-0.2925-0.9585-0.2925c-0.3301,0-0.5864,0.0693-0.7695,0.207
	c-0.1831,0.1382-0.2744,0.333-0.2744,0.585c0,0.1802,0.0479,0.3271,0.144,0.4414c0.0957,0.1138,0.2397,0.2173,0.4316,0.3101
	c0.1919,0.0933,0.4893,0.2119,0.8911,0.3555c0.4258,0.1621,0.7666,0.3096,1.0215,0.4414s0.4741,0.3164,0.6572,0.5532
	c0.1826,0.2373,0.2744,0.5327,0.2744,0.8867c0,0.3481-0.0898,0.6553-0.27,0.9224s-0.438,0.4741-0.7739,0.6211
	c-0.3364,0.147-0.7324,0.2202-1.188,0.2202C11.563,14.4717,11.1626,14.397,10.8174,14.2471z M16.3301,14.2109
	c-0.3423-0.1738-0.6074-0.4214-0.7964-0.7427c-0.1895-0.3208-0.2837-0.6914-0.2837-1.1113V8.2441c0-0.0962,0.0479-0.144,0.144-0.144
	h0.7559c0.0962,0,0.144,0.0479,0.144,0.144v4.1309c0,0.354,0.1108,0.6421,0.333,0.8638c0.2222,0.2222,0.5161,0.333,0.8818,0.333
	c0.3662,0,0.6602-0.1108,0.8823-0.333c0.2217-0.2217,0.333-0.5098,0.333-0.8638V8.2441c0-0.0962,0.0479-0.144,0.144-0.144h0.7559
	c0.0957,0,0.144,0.0479,0.144,0.144v4.1128c0,0.4199-0.0933,0.7905-0.2793,1.1113c-0.186,0.3213-0.4497,0.5688-0.792,0.7427
	c-0.3418,0.1738-0.7378,0.2607-1.188,0.2607C17.0649,14.4717,16.6719,14.3848,16.3301,14.2109z M24.5557,8.3247
	c0.2881,0.1563,0.5112,0.377,0.6704,0.6616c0.1592,0.2852,0.2388,0.6138,0.2388,0.9854c0,0.3662-0.0811,0.6904-0.2432,0.9722
	c-0.1621,0.2822-0.3916,0.4995-0.6885,0.6523c-0.2969,0.1533-0.6406,0.2295-1.0308,0.2295h-1.4307
	c-0.0361,0-0.0542,0.0181-0.0542,0.0542v2.376c0,0.0962-0.0479,0.144-0.144,0.144h-0.7559c-0.0962,0-0.144-0.0479-0.144-0.144
	v-6.021c0-0.0957,0.0479-0.144,0.144-0.144h2.439C23.9346,8.0908,24.2676,8.1689,24.5557,8.3247z M24.1416,10.71
	c0.186-0.1802,0.2788-0.417,0.2788-0.7109c0-0.3003-0.0928-0.543-0.2788-0.729s-0.4321-0.2793-0.7378-0.2793h-1.332
	c-0.0361,0-0.0542,0.0181-0.0542,0.0542v1.8809c0,0.0361,0.0181,0.0542,0.0542,0.0542h1.332
	C23.7095,10.98,23.9556,10.8901,24.1416,10.71z M29.9106,8.3247c0.2881,0.1563,0.5112,0.377,0.6704,0.6616
	c0.1592,0.2852,0.2388,0.6138,0.2388,0.9854c0,0.3662-0.0811,0.6904-0.2432,0.9722c-0.1621,0.2822-0.3916,0.4995-0.6885,0.6523
	c-0.2969,0.1533-0.6406,0.2295-1.0308,0.2295h-1.4307c-0.0361,0-0.0542,0.0181-0.0542,0.0542v2.376
	c0,0.0962-0.0479,0.144-0.144,0.144h-0.7559c-0.0962,0-0.144-0.0479-0.144-0.144v-6.021c0-0.0957,0.0479-0.144,0.144-0.144h2.439
	C29.2896,8.0908,29.6226,8.1689,29.9106,8.3247z M29.4966,10.71c0.186-0.1802,0.2788-0.417,0.2788-0.7109
	c0-0.3003-0.0928-0.543-0.2788-0.729s-0.4321-0.2793-0.7378-0.2793h-1.332c-0.0361,0-0.0542,0.0181-0.0542,0.0542v1.8809
	c0,0.0361,0.0181,0.0542,0.0542,0.0542h1.332C29.0645,10.98,29.3105,10.8901,29.4966,10.71z M32.6733,14.2153
	c-0.3477-0.1831-0.6162-0.4424-0.8052-0.7783s-0.2837-0.7231-0.2837-1.1611v-2.0518c0-0.4321,0.0962-0.8149,0.2881-1.1479
	s0.4604-0.5908,0.8057-0.7739c0.3447-0.1826,0.7422-0.2744,1.1924-0.2744c0.4561,0,0.8564,0.0918,1.2017,0.2744
	c0.3447,0.1831,0.6133,0.4409,0.8052,0.7739s0.2881,0.7158,0.2881,1.1479v2.0518c0,0.438-0.0962,0.8252-0.2881,1.1611
	s-0.4604,0.5952-0.8052,0.7783c-0.3452,0.1831-0.7456,0.2744-1.2017,0.2744C33.4204,14.4897,33.0215,14.3984,32.6733,14.2153z
	 M34.7798,13.2388c0.2275-0.2339,0.3418-0.543,0.3418-0.9268v-2.0972c0-0.3901-0.1143-0.7021-0.3418-0.936
	c-0.2285-0.2339-0.5313-0.3511-0.9092-0.3511c-0.3721,0-0.6719,0.1172-0.8999,0.3511s-0.3423,0.5459-0.3423,0.936v2.0972
	c0,0.3838,0.1143,0.6929,0.3423,0.9268c0.228,0.2344,0.5278,0.3511,0.8999,0.3511C34.2485,13.5898,34.5513,13.4731,34.7798,13.2388z
	 M40.7192,14.292l-1.1787-2.5742c-0.0063-0.0239-0.0269-0.0356-0.063-0.0356h-1.0532c-0.0356,0-0.0537,0.0176-0.0537,0.0537v2.52
	c0,0.0962-0.0483,0.144-0.144,0.144h-0.7563c-0.0957,0-0.1436-0.0479-0.1436-0.144v-6.021c0-0.0957,0.0479-0.144,0.1436-0.144
	h2.4395c0.3657,0,0.6895,0.0767,0.9717,0.2295c0.2822,0.1533,0.501,0.3691,0.6572,0.6479c0.1558,0.2793,0.2339,0.5986,0.2339,0.9585
	c0,0.4141-0.1064,0.7666-0.3193,1.0576c-0.2134,0.291-0.5059,0.4907-0.8779,0.5986c-0.0176,0.0059-0.0298,0.0166-0.0356,0.0313
	c-0.0063,0.0151-0.0034,0.0288,0.0088,0.0405l1.2422,2.5742l0.0181,0.0718c0,0.0664-0.042,0.0991-0.126,0.0991h-0.792
	C40.8062,14.3999,40.7495,14.3638,40.7192,14.292z M38.3706,9.0449v1.7729c0,0.0361,0.0181,0.0542,0.0537,0.0542h1.3413
	c0.2876,0,0.52-0.0854,0.6973-0.2568c0.1768-0.1709,0.2656-0.394,0.2656-0.6704c0-0.2817-0.0889-0.5112-0.2656-0.6885
	c-0.1772-0.1768-0.4097-0.2656-0.6973-0.2656h-1.3413C38.3887,8.9907,38.3706,9.0088,38.3706,9.0449z M47.083,8.2441v0.6206
	c0,0.0962-0.0488,0.144-0.1445,0.144h-1.6113c-0.0352,0-0.0547,0.0181-0.0547,0.0542v5.1929c0,0.0962-0.0469,0.144-0.1426,0.144
	H44.374c-0.0977,0-0.1445-0.0479-0.1445-0.144V9.063c0-0.0361-0.0176-0.0542-0.0547-0.0542h-1.5474
	c-0.0962,0-0.144-0.0479-0.144-0.144V8.2441c0-0.0962,0.0479-0.144,0.144-0.144h4.311C47.0342,8.1001,47.083,8.1479,47.083,8.2441z
	 M9.9941,25.0557v-6.0117c0-0.0957,0.0479-0.1436,0.1436-0.1436h0.7651c0.084,0,0.144,0.0322,0.1802,0.0986l1.4038,2.2676
	c0.0122,0.0186,0.0254,0.0273,0.0405,0.0273s0.0254-0.0088,0.0317-0.0273l1.4219-2.2676c0.0361-0.0664,0.0957-0.0986,0.1802-0.0986
	h0.7559c0.0957,0,0.144,0.0479,0.144,0.1436v6.0117c0,0.0967-0.0483,0.1445-0.144,0.1445h-0.7559
	c-0.0962,0-0.144-0.0479-0.144-0.1445v-4.2568c0-0.0234-0.0078-0.0391-0.0225-0.0449c-0.0151-0.0059-0.0288,0.0029-0.0405,0.0273
	l-1.0713,1.7549c-0.0361,0.0654-0.0957,0.0986-0.1797,0.0986h-0.3511c-0.0845,0-0.144-0.0332-0.1802-0.0986l-1.0708-1.7549
	c-0.0122-0.0244-0.0259-0.0332-0.0405-0.0273c-0.0151,0.0059-0.0225,0.0215-0.0225,0.0449v4.2568
	c0,0.0967-0.0483,0.1445-0.144,0.1445h-0.7563C10.042,25.2002,9.9941,25.1523,9.9941,25.0557z M17.8867,25.0469v-2.3672
	c0-0.0176-0.0059-0.0391-0.0181-0.0625l-1.8179-3.5459c-0.0181-0.0303-0.0269-0.0576-0.0269-0.0811
	c0-0.0605,0.042-0.0898,0.126-0.0898h0.8188c0.0781,0,0.1353,0.0352,0.1709,0.1074l1.2329,2.4756
	c0.0122,0.0176,0.0259,0.0264,0.0405,0.0264c0.0151,0,0.0259-0.0088,0.0317-0.0264l1.2422-2.4756
	c0.0356-0.0723,0.0928-0.1074,0.1709-0.1074h0.8276c0.084,0,0.1265,0.0293,0.1265,0.0898c0,0.0234-0.0093,0.0508-0.0273,0.0811
	l-1.8359,3.5459c-0.0122,0.0361-0.0181,0.0566-0.0181,0.0625v2.3672c0,0.0957-0.0479,0.1445-0.144,0.1445h-0.7559
	C17.9346,25.1914,17.8867,25.1426,17.8867,25.0469z M24.7266,25.0742l-1.6196-6.0127c-0.0063-0.0117-0.0093-0.0264-0.0093-0.0449
	c0-0.0361,0.0122-0.0645,0.0361-0.085c0.0239-0.0215,0.0566-0.0313,0.0991-0.0313h0.8096c0.084,0,0.1353,0.042,0.1533,0.126
	l1.0171,4.0498c0.0059,0.0234,0.0176,0.0361,0.0356,0.0361s0.0303-0.0127,0.0361-0.0361l0.9629-4.0498
	c0.0181-0.084,0.0688-0.126,0.1533-0.126h0.8096c0.0903,0,0.144,0.042,0.1621,0.126l1.0264,4.0498
	c0.0059,0.0234,0.0176,0.0361,0.0356,0.0361s0.0303-0.0127,0.0361-0.0361l0.999-4.0498c0.0181-0.084,0.0688-0.126,0.1528-0.126
	h0.7739c0.0483,0,0.0825,0.0146,0.1035,0.0449c0.021,0.0293,0.0259,0.0684,0.0137,0.1162l-1.5298,6.0127
	c-0.0181,0.084-0.0723,0.126-0.1621,0.126h-0.7832c-0.084,0-0.1348-0.042-0.1528-0.126l-1.0439-4.2393
	c-0.0063-0.0234-0.0181-0.0361-0.0361-0.0361s-0.0303,0.0127-0.0361,0.0361l-0.999,4.2393c-0.0176,0.084-0.0688,0.126-0.1528,0.126
	h-0.729C24.7988,25.2002,24.7446,25.1582,24.7266,25.0742z M32.0435,25.0156c-0.3477-0.1836-0.6162-0.4424-0.8052-0.7783
	s-0.2837-0.7236-0.2837-1.1611v-2.0518c0-0.4326,0.0962-0.8154,0.2881-1.1484s0.4604-0.5908,0.8057-0.7734
	c0.3447-0.1826,0.7422-0.2744,1.1924-0.2744c0.4561,0,0.8564,0.0918,1.2017,0.2744c0.3447,0.1826,0.6133,0.4404,0.8052,0.7734
	s0.2881,0.7158,0.2881,1.1484v2.0518c0,0.4375-0.0962,0.8252-0.2881,1.1611s-0.4604,0.5947-0.8052,0.7783
	c-0.3452,0.1826-0.7456,0.2744-1.2017,0.2744C32.7905,25.29,32.3916,25.1982,32.0435,25.0156z M34.1499,24.0391
	c0.2275-0.2344,0.3418-0.543,0.3418-0.9268v-2.0977c0-0.3896-0.1143-0.7021-0.3418-0.9355
	c-0.2285-0.2344-0.5313-0.3516-0.9092-0.3516c-0.3721,0-0.6719,0.1172-0.8999,0.3516c-0.228,0.2334-0.3423,0.5459-0.3423,0.9355
	v2.0977c0,0.3838,0.1143,0.6924,0.3423,0.9268s0.5278,0.3506,0.8999,0.3506C33.6187,24.3896,33.9214,24.2734,34.1499,24.0391z
	 M40.0894,25.0918l-1.1787-2.5742c-0.0063-0.0234-0.0269-0.0352-0.063-0.0352h-1.0532c-0.0356,0-0.0537,0.0176-0.0537,0.0537v2.5195
	c0,0.0967-0.0483,0.1445-0.144,0.1445h-0.7563c-0.0957,0-0.1436-0.0479-0.1436-0.1445v-6.0205c0-0.0957,0.0479-0.1445,0.1436-0.1445
	h2.4395c0.3657,0,0.6895,0.0771,0.9717,0.2295c0.2822,0.1533,0.501,0.3691,0.6572,0.6484c0.1558,0.2793,0.2339,0.5986,0.2339,0.958
	c0,0.4141-0.1064,0.7666-0.3193,1.0576c-0.2134,0.291-0.5059,0.4912-0.8779,0.5986c-0.0176,0.0059-0.0298,0.0166-0.0356,0.0313
	c-0.0063,0.0156-0.0034,0.0293,0.0088,0.041l1.2422,2.5742l0.0181,0.0713c0,0.0664-0.042,0.0996-0.126,0.0996h-0.792
	C40.1763,25.2002,40.1196,25.1641,40.0894,25.0918z M37.7407,19.8447v1.7734c0,0.0361,0.0181,0.0537,0.0537,0.0537h1.3413
	c0.2876,0,0.52-0.085,0.6973-0.2568c0.1768-0.1709,0.2656-0.3936,0.2656-0.6699c0-0.2822-0.0889-0.5117-0.2656-0.6885
	c-0.1772-0.1768-0.4097-0.2656-0.6973-0.2656h-1.3413C37.7588,19.791,37.7407,19.8086,37.7407,19.8447z M42.2139,25.0557v-6.0117
	c0-0.0957,0.0479-0.1436,0.1436-0.1436h0.7568c0.0957,0,0.1436,0.0479,0.1436,0.1436v2.6465c0,0.0234,0.0068,0.0371,0.0225,0.04
	c0.0146,0.0029,0.0283-0.0049,0.041-0.0225l2.3125-2.7275c0.0479-0.0537,0.1074-0.0801,0.1797-0.0801h0.8555
	c0.0771,0,0.1162,0.0293,0.1162,0.0898c0,0.0361-0.0117,0.0654-0.0352,0.0898l-2.0254,2.4746c-0.0176,0.0186-0.0176,0.042,0,0.0723
	l2.1777,3.4023c0.0186,0.0234,0.0273,0.0508,0.0273,0.0811c0,0.0596-0.042,0.0898-0.126,0.0898h-0.8643
	c-0.0781,0-0.1348-0.0332-0.1709-0.0996l-1.7549-2.7354c-0.0117-0.0186-0.0254-0.0283-0.041-0.0322
	c-0.0146-0.0029-0.0283,0.0049-0.04,0.0225l-0.6484,0.7656c-0.0176,0.0234-0.0264,0.0449-0.0264,0.0625v1.8721
	c0,0.0967-0.0479,0.1445-0.1436,0.1445h-0.7568C42.2617,25.2002,42.2139,25.1523,42.2139,25.0557z"/>
</svg>
