<?xml version="1.0" encoding="utf-8"?>
<!-- Generator: Adobe Illustrator 22.0.1, SVG Export Plug-In . SVG Version: 6.00 Build 0)  -->
<svg version="1.1" id="Capa_1" xmlns="http://www.w3.org/2000/svg"  x="0px" y="0px"
	 viewBox="0 0 85.8 32" enable-background="new 0 0 85.8 32" xml:space="preserve">
<path fill="#2F3542" d="M80,30H6c-2.2,0-4-1.8-4-4V6c0-2.2,1.8-4,4-4h74c2.2,0,4,1.8,4,4v20C84,28.2,82.2,30,80,30z"/>
<path fill="#FF6B81" d="M70.56,18c0.08-0.66,0.14-1.32,0.14-2s-0.06-1.34-0.14-2h3.38c0.16,0.64,0.26,1.31,0.26,2
	c0,0.69-0.1,1.36-0.26,2 M68.79,23.56c0.6-1.11,1.06-2.31,1.38-3.56h2.95C72.16,21.65,70.63,22.93,68.79,23.56 M68.54,18h-4.68
	c-0.1-0.66-0.16-1.32-0.16-2s0.06-1.35,0.16-2h4.68c0.09,0.65,0.16,1.32,0.16,2S68.63,17.34,68.54,18 M66.2,23.96
	c-0.83-1.2-1.5-2.53-1.91-3.96h3.82C67.7,21.43,67.03,22.76,66.2,23.96 M62.2,12h-2.92c0.95-1.66,2.49-2.94,4.32-3.56
	C63,9.55,62.55,10.75,62.2,12 M59.28,20h2.92c0.35,1.25,0.8,2.45,1.4,3.56C61.77,22.93,60.23,21.65,59.28,20 M58.46,18
	c-0.16-0.64-0.26-1.31-0.26-2c0-0.69,0.1-1.36,0.26-2h3.38c-0.08,0.66-0.14,1.32-0.14,2s0.06,1.34,0.14,2 M66.2,8.03
	c0.83,1.2,1.5,2.54,1.91,3.97h-3.82C64.7,10.57,65.37,9.23,66.2,8.03 M73.12,12h-2.95c-0.32-1.25-0.78-2.45-1.38-3.56
	C70.63,9.07,72.16,10.34,73.12,12 M66.2,6c-5.53,0-10,4.5-10,10c0,5.5228,4.4771,10,10,10s10-4.4772,10-10S71.7229,6,66.2,6z"/>
<path fill="#FFFFFF" d="M11.2212,13.8828l-1.8633-6.021C9.3521,7.8501,9.3491,7.832,9.3491,7.8081
	c0-0.0723,0.042-0.1079,0.126-0.1079h0.8188c0.084,0,0.1382,0.0391,0.1621,0.1167l1.332,4.6533
	c0.0117,0.0239,0.0254,0.0356,0.0405,0.0356c0.0146,0,0.0254-0.0117,0.0313-0.0356l1.3232-4.644
	c0.0181-0.084,0.0718-0.126,0.1621-0.126h0.8008c0.0479,0,0.0825,0.0146,0.1035,0.0449c0.021,0.0298,0.0254,0.0688,0.0137,0.1167
	l-1.8901,6.021C12.3491,13.9609,12.2949,14,12.2109,14h-0.8281C11.2988,14,11.2451,13.9609,11.2212,13.8828z M15.208,13.856V7.8442
	c0-0.0962,0.0479-0.144,0.1436-0.144h0.7563c0.0957,0,0.144,0.0479,0.144,0.144v6.0117c0,0.0962-0.0483,0.144-0.144,0.144h-0.7563
	C15.2559,14,15.208,13.9521,15.208,13.856z M18.3892,13.8472c-0.3452-0.1499-0.6104-0.3618-0.7964-0.6348
	s-0.2793-0.5894-0.2793-0.9492v-0.189c0-0.0962,0.0483-0.144,0.144-0.144h0.7383c0.0957,0,0.144,0.0449,0.144,0.1348v0.144
	c0,0.2759,0.1216,0.5054,0.3643,0.6885c0.2432,0.1831,0.5654,0.2744,0.9678,0.2744c0.3657,0,0.6416-0.0776,0.8276-0.2339
	c0.186-0.1558,0.2793-0.3569,0.2793-0.603c0-0.168-0.0513-0.3105-0.1533-0.4272c-0.1021-0.1172-0.2471-0.2236-0.4365-0.3198
	c-0.189-0.0957-0.4722-0.2158-0.8501-0.3599c-0.4263-0.1558-0.771-0.3027-1.0352-0.4409s-0.4844-0.3257-0.6616-0.5625
	c-0.1768-0.2373-0.2656-0.5327-0.2656-0.8867c0-0.5278,0.1924-0.9448,0.5762-1.251s0.897-0.459,1.5391-0.459
	c0.4502,0,0.8472,0.0781,1.1924,0.2339c0.3452,0.1563,0.6133,0.3735,0.8057,0.6528c0.1919,0.2788,0.2881,0.6016,0.2881,0.9673
	v0.1172c0,0.0957-0.0483,0.144-0.144,0.144h-0.7383c-0.042,0-0.0762-0.0107-0.1035-0.0317
	c-0.0269-0.021-0.0405-0.0464-0.0405-0.0767V9.5361c0-0.2822-0.1152-0.5205-0.3462-0.7158
	c-0.231-0.1948-0.5508-0.2925-0.9585-0.2925c-0.3301,0-0.5864,0.0693-0.7695,0.207c-0.1831,0.1382-0.2744,0.333-0.2744,0.585
	c0,0.1802,0.0479,0.3271,0.144,0.4414c0.0957,0.1138,0.2397,0.2173,0.4316,0.3101c0.1919,0.0933,0.4893,0.2119,0.8911,0.3555
	c0.4258,0.1621,0.7666,0.3096,1.0215,0.4414s0.4741,0.3164,0.6572,0.5532c0.1826,0.2373,0.2744,0.5327,0.2744,0.8867
	c0,0.3481-0.0898,0.6553-0.27,0.9224s-0.438,0.4741-0.7739,0.6211c-0.3364,0.147-0.7324,0.2202-1.188,0.2202
	C19.1348,14.0718,18.7344,13.9971,18.3892,13.8472z M22.876,13.856V7.8442c0-0.0962,0.0479-0.144,0.1436-0.144h0.7563
	c0.0957,0,0.144,0.0479,0.144,0.144v6.0117c0,0.0962-0.0483,0.144-0.144,0.144h-0.7563C22.9238,14,22.876,13.9521,22.876,13.856z
	 M29.4814,7.8442v0.6206c0,0.0962-0.0479,0.144-0.1436,0.144h-1.6113c-0.0361,0-0.0537,0.0181-0.0537,0.0542v5.1929
	c0,0.0962-0.0483,0.144-0.144,0.144h-0.7563c-0.0957,0-0.144-0.0479-0.144-0.144V8.6631c0-0.0361-0.0176-0.0542-0.0537-0.0542
	h-1.5479c-0.0962,0-0.144-0.0479-0.144-0.144V7.8442c0-0.0962,0.0479-0.144,0.144-0.144h4.311
	C29.4336,7.7002,29.4814,7.748,29.4814,7.8442z M10.8789,24.6738l-1.6196-6.0127C9.2529,18.6494,9.25,18.6348,9.25,18.6162
	c0-0.0361,0.0122-0.0645,0.0361-0.085C9.3101,18.5098,9.3428,18.5,9.3853,18.5h0.8096c0.084,0,0.1353,0.042,0.1533,0.126
	l1.0171,4.0498c0.0059,0.0234,0.0176,0.0361,0.0356,0.0361s0.0303-0.0127,0.0361-0.0361l0.9629-4.0498
	c0.0181-0.084,0.0688-0.126,0.1533-0.126h0.8096c0.0903,0,0.144,0.042,0.1621,0.126l1.0264,4.0498
	c0.0059,0.0234,0.0176,0.0361,0.0356,0.0361s0.0303-0.0127,0.0361-0.0361l0.999-4.0498c0.0181-0.084,0.0688-0.126,0.1528-0.126
	h0.7739c0.0483,0,0.0825,0.0146,0.1035,0.0449c0.021,0.0293,0.0259,0.0684,0.0137,0.1162l-1.5298,6.0127
	c-0.0181,0.084-0.0723,0.126-0.1621,0.126h-0.7832c-0.084,0-0.1348-0.042-0.1528-0.126l-1.0439-4.2393
	c-0.0063-0.0234-0.0181-0.0361-0.0361-0.0361s-0.0303,0.0127-0.0361,0.0361l-0.999,4.2393c-0.0176,0.084-0.0688,0.126-0.1528,0.126
	h-0.729C10.9512,24.7998,10.897,24.7578,10.8789,24.6738z M21.562,19.3994h-3.0239c-0.0356,0-0.0537,0.0186-0.0537,0.0537v1.665
	c0,0.0361,0.0181,0.0547,0.0537,0.0547h2.0161c0.0957,0,0.144,0.0479,0.144,0.1436v0.6123c0,0.0957-0.0483,0.1436-0.144,0.1436
	h-2.0161c-0.0356,0-0.0537,0.0186-0.0537,0.0547v1.7188c0,0.0361,0.0181,0.0537,0.0537,0.0537h3.0239
	c0.0962,0,0.144,0.0479,0.144,0.1445v0.6113c0,0.0967-0.0479,0.1445-0.144,0.1445h-3.978c-0.0957,0-0.1436-0.0479-0.1436-0.1445
	v-6.0117c0-0.0957,0.0479-0.1436,0.1436-0.1436h3.978c0.0962,0,0.144,0.0479,0.144,0.1436v0.6123
	C21.7061,19.3516,21.6582,19.3994,21.562,19.3994z M26.269,21.5371c0,0.0146,0.0117,0.0283,0.0356,0.04
	c0.6001,0.2881,0.9004,0.7803,0.9004,1.4766c0,0.5703-0.1909,1.0029-0.5718,1.3008c-0.3809,0.2969-0.8774,0.4453-1.4893,0.4453
	h-2.2324c-0.0957,0-0.1436-0.0479-0.1436-0.1445v-6.0117c0-0.0957,0.0479-0.1436,0.1436-0.1436h2.1602
	c0.6538,0,1.1582,0.1406,1.5122,0.4229s0.5308,0.708,0.5308,1.2773c0,0.6182-0.27,1.0537-0.8101,1.3057
	C26.2808,21.5117,26.269,21.5225,26.269,21.5371z M23.812,19.4531v1.6475c0,0.0361,0.0181,0.0537,0.0537,0.0537h1.2061
	c0.3179,0,0.5684-0.0762,0.7515-0.2295c0.1831-0.1523,0.2744-0.3643,0.2744-0.6338c0-0.2764-0.0913-0.4941-0.2744-0.6533
	c-0.1831-0.1582-0.4336-0.2383-0.7515-0.2383h-1.2061C23.8301,19.3994,23.812,19.418,23.812,19.4531z M25.8862,23.6387
	c0.1831-0.168,0.2744-0.3965,0.2744-0.6846c0-0.293-0.0928-0.5225-0.2788-0.6885c-0.186-0.1641-0.438-0.2471-0.7559-0.2471h-1.2603
	c-0.0356,0-0.0537,0.0176-0.0537,0.0537v1.7646c0,0.0361,0.0181,0.0537,0.0537,0.0537h1.2783
	C25.4556,23.8906,25.7031,23.8066,25.8862,23.6387z M29.1895,24.6465c-0.3452-0.1494-0.6104-0.3613-0.7964-0.6348
	c-0.186-0.2725-0.2793-0.5889-0.2793-0.9492V22.874c0-0.0967,0.0483-0.1445,0.144-0.1445h0.7383c0.0957,0,0.144,0.0449,0.144,0.1348
	v0.1445c0,0.2754,0.1216,0.5049,0.3643,0.6885c0.2432,0.1826,0.5654,0.2744,0.9678,0.2744c0.3657,0,0.6416-0.0781,0.8276-0.2344
	c0.186-0.1553,0.2793-0.3564,0.2793-0.6025c0-0.168-0.0513-0.3105-0.1533-0.4277s-0.2471-0.2236-0.4365-0.3193
	c-0.189-0.0957-0.4722-0.2158-0.8501-0.3604c-0.4263-0.1553-0.771-0.3027-1.0352-0.4404c-0.2642-0.1387-0.4844-0.3262-0.6616-0.5625
	c-0.1768-0.2373-0.2656-0.5332-0.2656-0.8867c0-0.5283,0.1924-0.9453,0.5762-1.251c0.3838-0.3066,0.897-0.459,1.5391-0.459
	c0.4502,0,0.8472,0.0781,1.1924,0.2334c0.3452,0.1563,0.6133,0.374,0.8057,0.6533c0.1919,0.2783,0.2881,0.6016,0.2881,0.9668v0.1172
	c0,0.0957-0.0483,0.1445-0.144,0.1445h-0.7383c-0.042,0-0.0762-0.0107-0.1035-0.0322c-0.0269-0.0205-0.0405-0.0459-0.0405-0.0762
	v-0.0986c0-0.2822-0.1152-0.5205-0.3462-0.7158s-0.5508-0.293-0.9585-0.293c-0.3301,0-0.5864,0.0693-0.7695,0.207
	c-0.1831,0.1387-0.2744,0.333-0.2744,0.585c0,0.1807,0.0479,0.3271,0.144,0.4414c0.0957,0.1143,0.2397,0.2178,0.4316,0.3105
	s0.4893,0.2119,0.8911,0.3555c0.4258,0.1621,0.7666,0.3096,1.0215,0.4414s0.4741,0.3164,0.6572,0.5527
	c0.1826,0.2373,0.2744,0.5332,0.2744,0.8867c0,0.3486-0.0898,0.6553-0.27,0.9229c-0.1802,0.2666-0.438,0.4736-0.7739,0.6211
	c-0.3364,0.1465-0.7324,0.2197-1.188,0.2197C29.9351,24.8711,29.5347,24.7969,29.1895,24.6465z M33.6763,24.6553v-6.0117
	c0-0.0957,0.0479-0.1436,0.1436-0.1436h0.7563c0.0957,0,0.144,0.0479,0.144,0.1436v6.0117c0,0.0967-0.0483,0.1445-0.144,0.1445
	h-0.7563C33.7241,24.7998,33.6763,24.752,33.6763,24.6553z M40.2817,18.6436v0.6211c0,0.0957-0.0488,0.1436-0.1445,0.1436h-1.6104
	c-0.0361,0-0.0547,0.0186-0.0547,0.0547v5.1924c0,0.0967-0.0479,0.1445-0.1436,0.1445h-0.7559
	c-0.0967,0-0.1445-0.0479-0.1445-0.1445v-5.1924c0-0.0361-0.0176-0.0547-0.0537-0.0547h-1.5479
	c-0.0967,0-0.1445-0.0479-0.1445-0.1436v-0.6211c0-0.0957,0.0479-0.1436,0.1445-0.1436h4.3105
	C40.2329,18.5,40.2817,18.5479,40.2817,18.6436z M45.3662,19.3994h-3.0239c-0.0361,0-0.0537,0.0186-0.0537,0.0537v1.665
	c0,0.0361,0.0176,0.0547,0.0537,0.0547h2.0161c0.0957,0,0.1436,0.0479,0.1436,0.1436v0.6123c0,0.0957-0.0479,0.1436-0.1436,0.1436
	h-2.0161c-0.0361,0-0.0537,0.0186-0.0537,0.0547v1.7188c0,0.0361,0.0176,0.0537,0.0537,0.0537h3.0239
	c0.0957,0,0.1436,0.0479,0.1436,0.1445v0.6113c0,0.0967-0.0479,0.1445-0.1436,0.1445h-3.978c-0.0957,0-0.1436-0.0479-0.1436-0.1445
	v-6.0117c0-0.0957,0.0479-0.1436,0.1436-0.1436h3.978c0.0957,0,0.1436,0.0479,0.1436,0.1436v0.6123
	C45.5098,19.3516,45.4619,19.3994,45.3662,19.3994z"/>
</svg>
